G04 #@! TF.GenerationSoftware,KiCad,Pcbnew,(6.0.4)*
G04 #@! TF.CreationDate,2022-04-03T16:10:21-07:00*
G04 #@! TF.ProjectId,tokiponaboard,746f6b69-706f-46e6-9162-6f6172642e6b,rev?*
G04 #@! TF.SameCoordinates,Original*
G04 #@! TF.FileFunction,Copper,L2,Bot*
G04 #@! TF.FilePolarity,Positive*
%FSLAX46Y46*%
G04 Gerber Fmt 4.6, Leading zero omitted, Abs format (unit mm)*
G04 Created by KiCad (PCBNEW (6.0.4)) date 2022-04-03 16:10:21*
%MOMM*%
%LPD*%
G01*
G04 APERTURE LIST*
G04 #@! TA.AperFunction,ComponentPad*
%ADD10C,1.879600*%
G04 #@! TD*
G04 #@! TA.AperFunction,ComponentPad*
%ADD11R,1.600000X1.600000*%
G04 #@! TD*
G04 #@! TA.AperFunction,ComponentPad*
%ADD12O,1.600000X1.600000*%
G04 #@! TD*
G04 #@! TA.AperFunction,ComponentPad*
%ADD13R,1.498600X4.498340*%
G04 #@! TD*
G04 #@! TA.AperFunction,Conductor*
%ADD14C,0.254000*%
G04 #@! TD*
G04 APERTURE END LIST*
D10*
X104140000Y-29210000D03*
X104140000Y-31750000D03*
X104140000Y-34290000D03*
X104140000Y-36830000D03*
X104140000Y-39370000D03*
X104140000Y-41910000D03*
X104140000Y-44450000D03*
X104140000Y-46990000D03*
X104140000Y-49530000D03*
X104140000Y-52070000D03*
X104140000Y-54610000D03*
X104140000Y-57150000D03*
X119380000Y-57150000D03*
X119380000Y-54610000D03*
X119380000Y-52070000D03*
X119380000Y-49530000D03*
X119380000Y-46990000D03*
X119380000Y-44450000D03*
X119380000Y-41910000D03*
X119380000Y-39370000D03*
X119380000Y-36830000D03*
X119380000Y-34290000D03*
X119380000Y-31750000D03*
X119380000Y-29210000D03*
D11*
X67310000Y-66034996D03*
D12*
X64770000Y-66034996D03*
X62230000Y-66034996D03*
X59690000Y-66034996D03*
X57150000Y-66034996D03*
X54610000Y-66034996D03*
X52070000Y-66034996D03*
X49530000Y-66034996D03*
X46990000Y-66034996D03*
X44450000Y-66034996D03*
X41910000Y-66034996D03*
X39370000Y-66034996D03*
X36830000Y-66034996D03*
X34290000Y-66034996D03*
X31750000Y-66034996D03*
X29210000Y-66034996D03*
X29210000Y-81274996D03*
X31750000Y-81274996D03*
X34290000Y-81274996D03*
X36830000Y-81274996D03*
X39370000Y-81274996D03*
X41910000Y-81274996D03*
X44450000Y-81274996D03*
X46990000Y-81274996D03*
X49530000Y-81274996D03*
X52070000Y-81274996D03*
X54610000Y-81274996D03*
X57150000Y-81274996D03*
X59690000Y-81274996D03*
X62230000Y-81274996D03*
X64770000Y-81274996D03*
X67310000Y-81274996D03*
D13*
X89359740Y-53469540D03*
X85361780Y-53469540D03*
X83360260Y-53469540D03*
X87358220Y-53469540D03*
X114759740Y-81409540D03*
X110761780Y-81409540D03*
X108760260Y-81409540D03*
X112758220Y-81409540D03*
X38559740Y-53469540D03*
X34561780Y-53469540D03*
X32560260Y-53469540D03*
X36558220Y-53469540D03*
X63959740Y-45849540D03*
X59961780Y-45849540D03*
X57960260Y-45849540D03*
X61958220Y-45849540D03*
D14*
X35560000Y-56970930D02*
X35560000Y-67310000D01*
X34561780Y-55972710D02*
X35560000Y-56970930D01*
X34561780Y-53469540D02*
X34561780Y-55972710D01*
X35560000Y-67310000D02*
X41910000Y-73660000D01*
X41910000Y-73660000D02*
X41910000Y-81275000D01*
X85361780Y-50528220D02*
X87630000Y-48260000D01*
X105654720Y-48260000D02*
X108466500Y-45448220D01*
X87630000Y-48260000D02*
X105654720Y-48260000D01*
X108466500Y-45448220D02*
X110761780Y-45448220D01*
X110761780Y-81409540D02*
X110761780Y-45448220D01*
X110761780Y-45448220D02*
X119380000Y-36830000D01*
X59961780Y-45849540D02*
X59961780Y-47349410D01*
X59961780Y-47349410D02*
X63140590Y-50528220D01*
X63140590Y-50528220D02*
X85361780Y-50528220D01*
X85361780Y-50528220D02*
X35892448Y-50528220D01*
X35892448Y-50528220D02*
X34561780Y-51858888D01*
X34561780Y-51858888D02*
X34561780Y-53469540D01*
X85361780Y-50528220D02*
X85361780Y-53469540D01*
M02*
