G04 #@! TF.GenerationSoftware,KiCad,Pcbnew,(6.0.4)*
G04 #@! TF.CreationDate,2022-04-03T16:10:21-07:00*
G04 #@! TF.ProjectId,tokiponaboard,746f6b69-706f-46e6-9162-6f6172642e6b,rev?*
G04 #@! TF.SameCoordinates,Original*
G04 #@! TF.FileFunction,Soldermask,Bot*
G04 #@! TF.FilePolarity,Negative*
%FSLAX46Y46*%
G04 Gerber Fmt 4.6, Leading zero omitted, Abs format (unit mm)*
G04 Created by KiCad (PCBNEW (6.0.4)) date 2022-04-03 16:10:21*
%MOMM*%
%LPD*%
G01*
G04 APERTURE LIST*
G04 Aperture macros list*
%AMRoundRect*
0 Rectangle with rounded corners*
0 $1 Rounding radius*
0 $2 $3 $4 $5 $6 $7 $8 $9 X,Y pos of 4 corners*
0 Add a 4 corners polygon primitive as box body*
4,1,4,$2,$3,$4,$5,$6,$7,$8,$9,$2,$3,0*
0 Add four circle primitives for the rounded corners*
1,1,$1+$1,$2,$3*
1,1,$1+$1,$4,$5*
1,1,$1+$1,$6,$7*
1,1,$1+$1,$8,$9*
0 Add four rect primitives between the rounded corners*
20,1,$1+$1,$2,$3,$4,$5,0*
20,1,$1+$1,$4,$5,$6,$7,0*
20,1,$1+$1,$6,$7,$8,$9,0*
20,1,$1+$1,$8,$9,$2,$3,0*%
G04 Aperture macros list end*
%ADD10C,2.082800*%
%ADD11R,1.600000X1.600000*%
%ADD12O,1.600000X1.600000*%
%ADD13C,2.202180*%
%ADD14RoundRect,0.101600X-0.749300X2.249170X-0.749300X-2.249170X0.749300X-2.249170X0.749300X2.249170X0*%
G04 APERTURE END LIST*
D10*
X104140000Y-29210000D03*
X104140000Y-31750000D03*
X104140000Y-34290000D03*
X104140000Y-36830000D03*
X104140000Y-39370000D03*
X104140000Y-41910000D03*
X104140000Y-44450000D03*
X104140000Y-46990000D03*
X104140000Y-49530000D03*
X104140000Y-52070000D03*
X104140000Y-54610000D03*
X104140000Y-57150000D03*
X119380000Y-57150000D03*
X119380000Y-54610000D03*
X119380000Y-52070000D03*
X119380000Y-49530000D03*
X119380000Y-46990000D03*
X119380000Y-44450000D03*
X119380000Y-41910000D03*
X119380000Y-39370000D03*
X119380000Y-36830000D03*
X119380000Y-34290000D03*
X119380000Y-31750000D03*
X119380000Y-29210000D03*
D11*
X67310000Y-66034996D03*
D12*
X64770000Y-66034996D03*
X62230000Y-66034996D03*
X59690000Y-66034996D03*
X57150000Y-66034996D03*
X54610000Y-66034996D03*
X52070000Y-66034996D03*
X49530000Y-66034996D03*
X46990000Y-66034996D03*
X44450000Y-66034996D03*
X41910000Y-66034996D03*
X39370000Y-66034996D03*
X36830000Y-66034996D03*
X34290000Y-66034996D03*
X31750000Y-66034996D03*
X29210000Y-66034996D03*
X29210000Y-81274996D03*
X31750000Y-81274996D03*
X34290000Y-81274996D03*
X36830000Y-81274996D03*
X39370000Y-81274996D03*
X41910000Y-81274996D03*
X44450000Y-81274996D03*
X46990000Y-81274996D03*
X49530000Y-81274996D03*
X52070000Y-81274996D03*
X54610000Y-81274996D03*
X57150000Y-81274996D03*
X59690000Y-81274996D03*
X62230000Y-81274996D03*
X64770000Y-81274996D03*
X67310000Y-81274996D03*
D13*
X95250000Y-54703980D03*
X93733620Y-35661600D03*
D14*
X89359740Y-53469540D03*
X85361780Y-53469540D03*
X83360260Y-53469540D03*
X87358220Y-53469540D03*
D13*
X119133620Y-63601600D03*
X120650000Y-82643980D03*
D14*
X114759740Y-81409540D03*
X110761780Y-81409540D03*
X108760260Y-81409540D03*
X112758220Y-81409540D03*
D13*
X44450000Y-54703980D03*
X42933620Y-35661600D03*
D14*
X38559740Y-53469540D03*
X34561780Y-53469540D03*
X32560260Y-53469540D03*
X36558220Y-53469540D03*
D13*
X68333620Y-28041600D03*
X69850000Y-47083980D03*
D14*
X63959740Y-45849540D03*
X59961780Y-45849540D03*
X57960260Y-45849540D03*
X61958220Y-45849540D03*
M02*
