G04 #@! TF.GenerationSoftware,KiCad,Pcbnew,(6.0.4)*
G04 #@! TF.CreationDate,2022-04-03T16:10:21-07:00*
G04 #@! TF.ProjectId,tokiponaboard,746f6b69-706f-46e6-9162-6f6172642e6b,rev?*
G04 #@! TF.SameCoordinates,Original*
G04 #@! TF.FileFunction,Copper,L1,Top*
G04 #@! TF.FilePolarity,Positive*
%FSLAX46Y46*%
G04 Gerber Fmt 4.6, Leading zero omitted, Abs format (unit mm)*
G04 Created by KiCad (PCBNEW (6.0.4)) date 2022-04-03 16:10:21*
%MOMM*%
%LPD*%
G01*
G04 APERTURE LIST*
G04 #@! TA.AperFunction,ComponentPad*
%ADD10C,1.879600*%
G04 #@! TD*
G04 #@! TA.AperFunction,ComponentPad*
%ADD11R,1.600000X1.600000*%
G04 #@! TD*
G04 #@! TA.AperFunction,ComponentPad*
%ADD12O,1.600000X1.600000*%
G04 #@! TD*
G04 #@! TA.AperFunction,ComponentPad*
%ADD13R,1.498600X4.498340*%
G04 #@! TD*
G04 #@! TA.AperFunction,Conductor*
%ADD14C,0.254000*%
G04 #@! TD*
G04 #@! TA.AperFunction,Conductor*
%ADD15C,0.177800*%
G04 #@! TD*
G04 APERTURE END LIST*
D10*
X104140000Y-29210000D03*
X104140000Y-31750000D03*
X104140000Y-34290000D03*
X104140000Y-36830000D03*
X104140000Y-39370000D03*
X104140000Y-41910000D03*
X104140000Y-44450000D03*
X104140000Y-46990000D03*
X104140000Y-49530000D03*
X104140000Y-52070000D03*
X104140000Y-54610000D03*
X104140000Y-57150000D03*
X119380000Y-57150000D03*
X119380000Y-54610000D03*
X119380000Y-52070000D03*
X119380000Y-49530000D03*
X119380000Y-46990000D03*
X119380000Y-44450000D03*
X119380000Y-41910000D03*
X119380000Y-39370000D03*
X119380000Y-36830000D03*
X119380000Y-34290000D03*
X119380000Y-31750000D03*
X119380000Y-29210000D03*
D11*
X67310000Y-66034996D03*
D12*
X64770000Y-66034996D03*
X62230000Y-66034996D03*
X59690000Y-66034996D03*
X57150000Y-66034996D03*
X54610000Y-66034996D03*
X52070000Y-66034996D03*
X49530000Y-66034996D03*
X46990000Y-66034996D03*
X44450000Y-66034996D03*
X41910000Y-66034996D03*
X39370000Y-66034996D03*
X36830000Y-66034996D03*
X34290000Y-66034996D03*
X31750000Y-66034996D03*
X29210000Y-66034996D03*
X29210000Y-81274996D03*
X31750000Y-81274996D03*
X34290000Y-81274996D03*
X36830000Y-81274996D03*
X39370000Y-81274996D03*
X41910000Y-81274996D03*
X44450000Y-81274996D03*
X46990000Y-81274996D03*
X49530000Y-81274996D03*
X52070000Y-81274996D03*
X54610000Y-81274996D03*
X57150000Y-81274996D03*
X59690000Y-81274996D03*
X62230000Y-81274996D03*
X64770000Y-81274996D03*
X67310000Y-81274996D03*
D13*
X89359740Y-53469540D03*
X85361780Y-53469540D03*
X83360260Y-53469540D03*
X87358220Y-53469540D03*
X114759740Y-81409540D03*
X110761780Y-81409540D03*
X108760260Y-81409540D03*
X112758220Y-81409540D03*
X38559740Y-53469540D03*
X34561780Y-53469540D03*
X32560260Y-53469540D03*
X36558220Y-53469540D03*
X63959740Y-45849540D03*
X59961780Y-45849540D03*
X57960260Y-45849540D03*
X61958220Y-45849540D03*
D14*
X119380000Y-31750000D02*
X121285000Y-33655000D01*
X121285000Y-68580000D02*
X114759740Y-75105260D01*
X121285000Y-33655000D02*
X121285000Y-68580000D01*
X114759740Y-75105260D02*
X114759740Y-81409540D01*
X64008000Y-41910000D02*
X89408000Y-41910000D01*
X89408000Y-41910000D02*
X95250000Y-41910000D01*
X89359740Y-53469540D02*
X89359740Y-41958260D01*
X89359740Y-41958260D02*
X89408000Y-41910000D01*
X95250000Y-41910000D02*
X96520000Y-40640000D01*
X96520000Y-40640000D02*
X110490000Y-40640000D01*
X110490000Y-40640000D02*
X119380000Y-31750000D01*
X52070000Y-41910000D02*
X64008000Y-41910000D01*
X63959740Y-45849540D02*
X63959740Y-41958260D01*
D15*
X63959740Y-41958260D02*
X64008000Y-41910000D01*
D14*
X44450000Y-41910000D02*
X38559740Y-47800260D01*
X38559740Y-47800260D02*
X38559740Y-53469540D01*
X44450000Y-41910000D02*
X52070000Y-41910000D01*
D15*
X116840000Y-48260000D02*
X86916081Y-78183919D01*
X86916081Y-78183919D02*
X55161081Y-78183919D01*
X116840000Y-46990000D02*
X116840000Y-48260000D01*
X116840000Y-46990000D02*
X119380000Y-44450000D01*
X55161081Y-78183919D02*
X52070000Y-81275000D01*
X119380000Y-39370000D02*
X116129760Y-42620240D01*
X116129760Y-42620240D02*
X116129760Y-47965808D01*
X116129760Y-47965808D02*
X86625568Y-77470000D01*
X86625568Y-77470000D02*
X50795000Y-77470000D01*
X50795000Y-77470000D02*
X46990000Y-81275000D01*
X119380000Y-41910000D02*
X116484880Y-44805120D01*
X116484880Y-44805120D02*
X116484880Y-48112904D01*
X116484880Y-48112904D02*
X86768985Y-77828799D01*
X86768985Y-77828799D02*
X52976201Y-77828799D01*
X52976201Y-77828799D02*
X49530000Y-81275000D01*
D14*
X38559740Y-53469540D02*
X38100000Y-53929280D01*
X38100000Y-53929280D02*
X38100000Y-80005000D01*
X38100000Y-80005000D02*
X39370000Y-81275000D01*
D15*
X119380000Y-46990000D02*
X87830961Y-78539039D01*
X57345961Y-78539039D02*
X54610000Y-81275000D01*
X87830961Y-78539039D02*
X57345961Y-78539039D01*
X57150000Y-81275000D02*
X59530841Y-78894159D01*
X59530841Y-78894159D02*
X90015841Y-78894159D01*
X90015841Y-78894159D02*
X111760000Y-57150000D01*
X111760000Y-57150000D02*
X119380000Y-57150000D01*
X108760260Y-81409540D02*
X106599999Y-83569801D01*
X106599999Y-83569801D02*
X29462017Y-83569801D01*
X29462017Y-83569801D02*
X27025120Y-81132904D01*
X27025120Y-81132904D02*
X27025120Y-68219880D01*
X27025120Y-68219880D02*
X29210000Y-66035000D01*
X31750000Y-66035000D02*
X30485000Y-64770000D01*
X30485000Y-64770000D02*
X27940000Y-64770000D01*
X27940000Y-64770000D02*
X26670000Y-66040000D01*
X111777291Y-83924921D02*
X112758220Y-82943992D01*
X26670000Y-66040000D02*
X26670000Y-81280000D01*
X26670000Y-81280000D02*
X29314921Y-83924921D01*
X112758220Y-82943992D02*
X112758220Y-81409540D01*
X29314921Y-83924921D02*
X111777291Y-83924921D01*
X87358220Y-53469540D02*
X87358220Y-55003992D01*
X87358220Y-55003992D02*
X85212212Y-57150000D01*
X85212212Y-57150000D02*
X55875000Y-57150000D01*
X55875000Y-57150000D02*
X46990000Y-66035000D01*
X83360260Y-53469540D02*
X57015460Y-53469540D01*
X57015460Y-53469540D02*
X44450000Y-66035000D01*
X41910000Y-64770000D02*
X57150000Y-49530000D01*
X57150000Y-49530000D02*
X59777630Y-49530000D01*
X41910000Y-66035000D02*
X41910000Y-64770000D01*
X59777630Y-49530000D02*
X61958220Y-47349410D01*
X61958220Y-47349410D02*
X61958220Y-45849540D01*
X57960260Y-45849540D02*
X39370000Y-64439800D01*
X39370000Y-64439800D02*
X39370000Y-66035000D01*
X36558220Y-53469540D02*
X36558220Y-65763220D01*
X36558220Y-65763220D02*
X36830000Y-66035000D01*
X32560260Y-53469540D02*
X32560260Y-64305260D01*
X32560260Y-64305260D02*
X34290000Y-66035000D01*
G04 #@! TA.AperFunction,Conductor*
G36*
X69792121Y-33675002D02*
G01*
X69838614Y-33728658D01*
X69850000Y-33781000D01*
X69850000Y-42419000D01*
X69829998Y-42487121D01*
X69776342Y-42533614D01*
X69724000Y-42545000D01*
X52196000Y-42545000D01*
X52127879Y-42524998D01*
X52081386Y-42471342D01*
X52070000Y-42419000D01*
X52070000Y-33781000D01*
X52090002Y-33712879D01*
X52143658Y-33666386D01*
X52196000Y-33655000D01*
X69724000Y-33655000D01*
X69792121Y-33675002D01*
G37*
G04 #@! TD.AperFunction*
G04 #@! TA.AperFunction,Conductor*
G36*
X44392121Y-41295002D02*
G01*
X44438614Y-41348658D01*
X44450000Y-41401000D01*
X44450000Y-50039000D01*
X44429998Y-50107121D01*
X44376342Y-50153614D01*
X44324000Y-50165000D01*
X26796000Y-50165000D01*
X26727879Y-50144998D01*
X26681386Y-50091342D01*
X26670000Y-50039000D01*
X26670000Y-41401000D01*
X26690002Y-41332879D01*
X26743658Y-41286386D01*
X26796000Y-41275000D01*
X44324000Y-41275000D01*
X44392121Y-41295002D01*
G37*
G04 #@! TD.AperFunction*
G04 #@! TA.AperFunction,Conductor*
G36*
X95192121Y-41295002D02*
G01*
X95238614Y-41348658D01*
X95250000Y-41401000D01*
X95250000Y-50039000D01*
X95229998Y-50107121D01*
X95176342Y-50153614D01*
X95124000Y-50165000D01*
X77596000Y-50165000D01*
X77527879Y-50144998D01*
X77481386Y-50091342D01*
X77470000Y-50039000D01*
X77470000Y-41401000D01*
X77490002Y-41332879D01*
X77543658Y-41286386D01*
X77596000Y-41275000D01*
X95124000Y-41275000D01*
X95192121Y-41295002D01*
G37*
G04 #@! TD.AperFunction*
G04 #@! TA.AperFunction,Conductor*
G36*
X120592121Y-69235002D02*
G01*
X120638614Y-69288658D01*
X120650000Y-69341000D01*
X120650000Y-77979000D01*
X120629998Y-78047121D01*
X120576342Y-78093614D01*
X120524000Y-78105000D01*
X102996000Y-78105000D01*
X102927879Y-78084998D01*
X102881386Y-78031342D01*
X102870000Y-77979000D01*
X102870000Y-69341000D01*
X102890002Y-69272879D01*
X102943658Y-69226386D01*
X102996000Y-69215000D01*
X120524000Y-69215000D01*
X120592121Y-69235002D01*
G37*
G04 #@! TD.AperFunction*
M02*
