%FSLAX45Y45*%
G04 Gerber Fmt 4.5, Leading zero omitted, Abs format (unit mm)*
G04 Created by KiCad (PCBNEW (6.0.4)) date 2022-04-03 16:10:39*
%MOMM*%
%LPD*%
G01*
G04 APERTURE LIST*
%TA.AperFunction,Profile*%
%ADD10C,0.025400*%
%TD*%
%ADD11C,0.200000*%
%ADD12C,0.199898*%
G04 APERTURE END LIST*
D10*
X2540000Y-2540000D02*
X12319000Y-2540000D01*
X12319000Y-2540000D02*
X12319000Y-8509000D01*
X12319000Y-8509000D02*
X2540000Y-8509000D01*
X2540000Y-8509000D02*
X2540000Y-2540000D01*
D11*
D12*
X4193413Y-3466211D02*
X4393311Y-3666109D01*
X4393311Y-3466211D02*
X4193413Y-3666109D01*
X4345051Y-5370449D02*
X4544949Y-5570347D01*
X4544949Y-5370449D02*
X4345051Y-5570347D01*
X6733413Y-2704211D02*
X6933311Y-2904109D01*
X6933311Y-2704211D02*
X6733413Y-2904109D01*
X6885051Y-4608449D02*
X7084949Y-4808347D01*
X7084949Y-4608449D02*
X6885051Y-4808347D01*
X9273413Y-3466211D02*
X9473311Y-3666109D01*
X9473311Y-3466211D02*
X9273413Y-3666109D01*
X9425051Y-5370449D02*
X9624949Y-5570347D01*
X9624949Y-5370449D02*
X9425051Y-5570347D01*
X11813413Y-6260211D02*
X12013311Y-6460109D01*
X12013311Y-6260211D02*
X11813413Y-6460109D01*
X11965051Y-8164449D02*
X12164949Y-8364347D01*
X12164949Y-8164449D02*
X11965051Y-8364347D01*
D11*
X2796349Y-8820746D02*
X2796349Y-8620746D01*
X2843968Y-8620746D01*
X2872539Y-8630270D01*
X2891587Y-8649318D01*
X2901111Y-8668365D01*
X2910635Y-8706460D01*
X2910635Y-8735032D01*
X2901111Y-8773127D01*
X2891587Y-8792175D01*
X2872539Y-8811222D01*
X2843968Y-8820746D01*
X2796349Y-8820746D01*
X2996349Y-8820746D02*
X2996349Y-8687413D01*
X2996349Y-8725508D02*
X3005873Y-8706460D01*
X3015397Y-8696937D01*
X3034444Y-8687413D01*
X3053492Y-8687413D01*
X3120158Y-8820746D02*
X3120158Y-8687413D01*
X3120158Y-8620746D02*
X3110635Y-8630270D01*
X3120158Y-8639794D01*
X3129682Y-8630270D01*
X3120158Y-8620746D01*
X3120158Y-8639794D01*
X3243968Y-8820746D02*
X3224920Y-8811222D01*
X3215397Y-8792175D01*
X3215397Y-8620746D01*
X3348730Y-8820746D02*
X3329682Y-8811222D01*
X3320158Y-8792175D01*
X3320158Y-8620746D01*
X3577301Y-8820746D02*
X3577301Y-8620746D01*
X3643968Y-8763603D01*
X3710635Y-8620746D01*
X3710635Y-8820746D01*
X3891587Y-8820746D02*
X3891587Y-8715984D01*
X3882063Y-8696937D01*
X3863016Y-8687413D01*
X3824920Y-8687413D01*
X3805873Y-8696937D01*
X3891587Y-8811222D02*
X3872539Y-8820746D01*
X3824920Y-8820746D01*
X3805873Y-8811222D01*
X3796349Y-8792175D01*
X3796349Y-8773127D01*
X3805873Y-8754080D01*
X3824920Y-8744556D01*
X3872539Y-8744556D01*
X3891587Y-8735032D01*
X3986825Y-8687413D02*
X3986825Y-8887413D01*
X3986825Y-8696937D02*
X4005873Y-8687413D01*
X4043968Y-8687413D01*
X4063016Y-8696937D01*
X4072539Y-8706460D01*
X4082063Y-8725508D01*
X4082063Y-8782651D01*
X4072539Y-8801699D01*
X4063016Y-8811222D01*
X4043968Y-8820746D01*
X4005873Y-8820746D01*
X3986825Y-8811222D01*
X4167778Y-8801699D02*
X4177301Y-8811222D01*
X4167778Y-8820746D01*
X4158254Y-8811222D01*
X4167778Y-8801699D01*
X4167778Y-8820746D01*
X4167778Y-8696937D02*
X4177301Y-8706460D01*
X4167778Y-8715984D01*
X4158254Y-8706460D01*
X4167778Y-8696937D01*
X4167778Y-8715984D01*
D12*
X2338832Y-9050321D02*
X2538730Y-9250219D01*
X2538730Y-9050321D02*
X2338832Y-9250219D01*
D11*
X2901111Y-9240746D02*
X2786825Y-9240746D01*
X2843968Y-9240746D02*
X2843968Y-9040746D01*
X2824920Y-9069318D01*
X2805873Y-9088365D01*
X2786825Y-9097889D01*
X2986825Y-9221699D02*
X2996349Y-9231222D01*
X2986825Y-9240746D01*
X2977301Y-9231222D01*
X2986825Y-9221699D01*
X2986825Y-9240746D01*
X3091587Y-9240746D02*
X3129682Y-9240746D01*
X3148730Y-9231222D01*
X3158254Y-9221699D01*
X3177301Y-9193127D01*
X3186825Y-9155032D01*
X3186825Y-9078841D01*
X3177301Y-9059794D01*
X3167778Y-9050270D01*
X3148730Y-9040746D01*
X3110635Y-9040746D01*
X3091587Y-9050270D01*
X3082063Y-9059794D01*
X3072539Y-9078841D01*
X3072539Y-9126460D01*
X3082063Y-9145508D01*
X3091587Y-9155032D01*
X3110635Y-9164556D01*
X3148730Y-9164556D01*
X3167778Y-9155032D01*
X3177301Y-9145508D01*
X3186825Y-9126460D01*
X3282063Y-9240746D02*
X3320158Y-9240746D01*
X3339206Y-9231222D01*
X3348730Y-9221699D01*
X3367778Y-9193127D01*
X3377301Y-9155032D01*
X3377301Y-9078841D01*
X3367778Y-9059794D01*
X3358254Y-9050270D01*
X3339206Y-9040746D01*
X3301111Y-9040746D01*
X3282063Y-9050270D01*
X3272539Y-9059794D01*
X3263016Y-9078841D01*
X3263016Y-9126460D01*
X3272539Y-9145508D01*
X3282063Y-9155032D01*
X3301111Y-9164556D01*
X3339206Y-9164556D01*
X3358254Y-9155032D01*
X3367778Y-9145508D01*
X3377301Y-9126460D01*
X3472539Y-9240746D02*
X3510635Y-9240746D01*
X3529682Y-9231222D01*
X3539206Y-9221699D01*
X3558254Y-9193127D01*
X3567778Y-9155032D01*
X3567778Y-9078841D01*
X3558254Y-9059794D01*
X3548730Y-9050270D01*
X3529682Y-9040746D01*
X3491587Y-9040746D01*
X3472539Y-9050270D01*
X3463016Y-9059794D01*
X3453492Y-9078841D01*
X3453492Y-9126460D01*
X3463016Y-9145508D01*
X3472539Y-9155032D01*
X3491587Y-9164556D01*
X3529682Y-9164556D01*
X3548730Y-9155032D01*
X3558254Y-9145508D01*
X3567778Y-9126460D01*
X3653492Y-9240746D02*
X3653492Y-9107413D01*
X3653492Y-9126460D02*
X3663016Y-9116937D01*
X3682063Y-9107413D01*
X3710635Y-9107413D01*
X3729682Y-9116937D01*
X3739206Y-9135984D01*
X3739206Y-9240746D01*
X3739206Y-9135984D02*
X3748730Y-9116937D01*
X3767778Y-9107413D01*
X3796349Y-9107413D01*
X3815397Y-9116937D01*
X3824920Y-9135984D01*
X3824920Y-9240746D01*
X3920158Y-9240746D02*
X3920158Y-9107413D01*
X3920158Y-9126460D02*
X3929682Y-9116937D01*
X3948730Y-9107413D01*
X3977301Y-9107413D01*
X3996349Y-9116937D01*
X4005873Y-9135984D01*
X4005873Y-9240746D01*
X4005873Y-9135984D02*
X4015397Y-9116937D01*
X4034444Y-9107413D01*
X4063016Y-9107413D01*
X4082063Y-9116937D01*
X4091587Y-9135984D01*
X4091587Y-9240746D01*
X4482063Y-9031222D02*
X4310635Y-9288365D01*
X4739206Y-9040746D02*
X4758254Y-9040746D01*
X4777301Y-9050270D01*
X4786825Y-9059794D01*
X4796349Y-9078841D01*
X4805873Y-9116937D01*
X4805873Y-9164556D01*
X4796349Y-9202651D01*
X4786825Y-9221699D01*
X4777301Y-9231222D01*
X4758254Y-9240746D01*
X4739206Y-9240746D01*
X4720159Y-9231222D01*
X4710635Y-9221699D01*
X4701111Y-9202651D01*
X4691587Y-9164556D01*
X4691587Y-9116937D01*
X4701111Y-9078841D01*
X4710635Y-9059794D01*
X4720159Y-9050270D01*
X4739206Y-9040746D01*
X4891587Y-9221699D02*
X4901111Y-9231222D01*
X4891587Y-9240746D01*
X4882063Y-9231222D01*
X4891587Y-9221699D01*
X4891587Y-9240746D01*
X5024920Y-9040746D02*
X5043968Y-9040746D01*
X5063016Y-9050270D01*
X5072540Y-9059794D01*
X5082063Y-9078841D01*
X5091587Y-9116937D01*
X5091587Y-9164556D01*
X5082063Y-9202651D01*
X5072540Y-9221699D01*
X5063016Y-9231222D01*
X5043968Y-9240746D01*
X5024920Y-9240746D01*
X5005873Y-9231222D01*
X4996349Y-9221699D01*
X4986825Y-9202651D01*
X4977301Y-9164556D01*
X4977301Y-9116937D01*
X4986825Y-9078841D01*
X4996349Y-9059794D01*
X5005873Y-9050270D01*
X5024920Y-9040746D01*
X5158254Y-9040746D02*
X5291587Y-9040746D01*
X5205873Y-9240746D01*
X5396349Y-9126460D02*
X5377301Y-9116937D01*
X5367778Y-9107413D01*
X5358254Y-9088365D01*
X5358254Y-9078841D01*
X5367778Y-9059794D01*
X5377301Y-9050270D01*
X5396349Y-9040746D01*
X5434444Y-9040746D01*
X5453492Y-9050270D01*
X5463016Y-9059794D01*
X5472540Y-9078841D01*
X5472540Y-9088365D01*
X5463016Y-9107413D01*
X5453492Y-9116937D01*
X5434444Y-9126460D01*
X5396349Y-9126460D01*
X5377301Y-9135984D01*
X5367778Y-9145508D01*
X5358254Y-9164556D01*
X5358254Y-9202651D01*
X5367778Y-9221699D01*
X5377301Y-9231222D01*
X5396349Y-9240746D01*
X5434444Y-9240746D01*
X5453492Y-9231222D01*
X5463016Y-9221699D01*
X5472540Y-9202651D01*
X5472540Y-9164556D01*
X5463016Y-9145508D01*
X5453492Y-9135984D01*
X5434444Y-9126460D01*
X5539206Y-9040746D02*
X5672539Y-9040746D01*
X5586825Y-9240746D01*
X5739206Y-9040746D02*
X5739206Y-9078841D01*
X5815397Y-9040746D02*
X5815397Y-9078841D01*
X6110635Y-9316937D02*
X6101111Y-9307413D01*
X6082063Y-9278841D01*
X6072539Y-9259794D01*
X6063016Y-9231222D01*
X6053492Y-9183603D01*
X6053492Y-9145508D01*
X6063016Y-9097889D01*
X6072539Y-9069318D01*
X6082063Y-9050270D01*
X6101111Y-9021699D01*
X6110635Y-9012175D01*
X6215397Y-9126460D02*
X6196349Y-9116937D01*
X6186825Y-9107413D01*
X6177301Y-9088365D01*
X6177301Y-9078841D01*
X6186825Y-9059794D01*
X6196349Y-9050270D01*
X6215397Y-9040746D01*
X6253492Y-9040746D01*
X6272539Y-9050270D01*
X6282063Y-9059794D01*
X6291587Y-9078841D01*
X6291587Y-9088365D01*
X6282063Y-9107413D01*
X6272539Y-9116937D01*
X6253492Y-9126460D01*
X6215397Y-9126460D01*
X6196349Y-9135984D01*
X6186825Y-9145508D01*
X6177301Y-9164556D01*
X6177301Y-9202651D01*
X6186825Y-9221699D01*
X6196349Y-9231222D01*
X6215397Y-9240746D01*
X6253492Y-9240746D01*
X6272539Y-9231222D01*
X6282063Y-9221699D01*
X6291587Y-9202651D01*
X6291587Y-9164556D01*
X6282063Y-9145508D01*
X6272539Y-9135984D01*
X6253492Y-9126460D01*
X6529682Y-9240746D02*
X6529682Y-9040746D01*
X6615397Y-9240746D02*
X6615397Y-9135984D01*
X6605873Y-9116937D01*
X6586825Y-9107413D01*
X6558254Y-9107413D01*
X6539206Y-9116937D01*
X6529682Y-9126460D01*
X6739206Y-9240746D02*
X6720158Y-9231222D01*
X6710635Y-9221699D01*
X6701111Y-9202651D01*
X6701111Y-9145508D01*
X6710635Y-9126460D01*
X6720158Y-9116937D01*
X6739206Y-9107413D01*
X6767778Y-9107413D01*
X6786825Y-9116937D01*
X6796349Y-9126460D01*
X6805873Y-9145508D01*
X6805873Y-9202651D01*
X6796349Y-9221699D01*
X6786825Y-9231222D01*
X6767778Y-9240746D01*
X6739206Y-9240746D01*
X6920158Y-9240746D02*
X6901111Y-9231222D01*
X6891587Y-9212175D01*
X6891587Y-9040746D01*
X7072539Y-9231222D02*
X7053492Y-9240746D01*
X7015397Y-9240746D01*
X6996349Y-9231222D01*
X6986825Y-9212175D01*
X6986825Y-9135984D01*
X6996349Y-9116937D01*
X7015397Y-9107413D01*
X7053492Y-9107413D01*
X7072539Y-9116937D01*
X7082063Y-9135984D01*
X7082063Y-9155032D01*
X6986825Y-9174080D01*
X7158254Y-9231222D02*
X7177301Y-9240746D01*
X7215397Y-9240746D01*
X7234444Y-9231222D01*
X7243968Y-9212175D01*
X7243968Y-9202651D01*
X7234444Y-9183603D01*
X7215397Y-9174080D01*
X7186825Y-9174080D01*
X7167778Y-9164556D01*
X7158254Y-9145508D01*
X7158254Y-9135984D01*
X7167778Y-9116937D01*
X7186825Y-9107413D01*
X7215397Y-9107413D01*
X7234444Y-9116937D01*
X7310635Y-9316937D02*
X7320158Y-9307413D01*
X7339206Y-9278841D01*
X7348730Y-9259794D01*
X7358254Y-9231222D01*
X7367778Y-9183603D01*
X7367778Y-9145508D01*
X7358254Y-9097889D01*
X7348730Y-9069318D01*
X7339206Y-9050270D01*
X7320158Y-9021699D01*
X7310635Y-9012175D01*
X7672539Y-9316937D02*
X7663016Y-9307413D01*
X7643968Y-9278841D01*
X7634444Y-9259794D01*
X7624920Y-9231222D01*
X7615397Y-9183603D01*
X7615397Y-9145508D01*
X7624920Y-9097889D01*
X7634444Y-9069318D01*
X7643968Y-9050270D01*
X7663016Y-9021699D01*
X7672539Y-9012175D01*
X7748730Y-9107413D02*
X7748730Y-9240746D01*
X7748730Y-9126460D02*
X7758254Y-9116937D01*
X7777301Y-9107413D01*
X7805873Y-9107413D01*
X7824920Y-9116937D01*
X7834444Y-9135984D01*
X7834444Y-9240746D01*
X7958254Y-9240746D02*
X7939206Y-9231222D01*
X7929682Y-9221699D01*
X7920158Y-9202651D01*
X7920158Y-9145508D01*
X7929682Y-9126460D01*
X7939206Y-9116937D01*
X7958254Y-9107413D01*
X7986825Y-9107413D01*
X8005873Y-9116937D01*
X8015397Y-9126460D01*
X8024920Y-9145508D01*
X8024920Y-9202651D01*
X8015397Y-9221699D01*
X8005873Y-9231222D01*
X7986825Y-9240746D01*
X7958254Y-9240746D01*
X8082063Y-9107413D02*
X8158254Y-9107413D01*
X8110635Y-9040746D02*
X8110635Y-9212175D01*
X8120158Y-9231222D01*
X8139206Y-9240746D01*
X8158254Y-9240746D01*
X8377301Y-9107413D02*
X8377301Y-9307413D01*
X8377301Y-9116937D02*
X8396349Y-9107413D01*
X8434444Y-9107413D01*
X8453492Y-9116937D01*
X8463016Y-9126460D01*
X8472540Y-9145508D01*
X8472540Y-9202651D01*
X8463016Y-9221699D01*
X8453492Y-9231222D01*
X8434444Y-9240746D01*
X8396349Y-9240746D01*
X8377301Y-9231222D01*
X8586825Y-9240746D02*
X8567778Y-9231222D01*
X8558254Y-9212175D01*
X8558254Y-9040746D01*
X8748730Y-9240746D02*
X8748730Y-9135984D01*
X8739206Y-9116937D01*
X8720159Y-9107413D01*
X8682063Y-9107413D01*
X8663016Y-9116937D01*
X8748730Y-9231222D02*
X8729682Y-9240746D01*
X8682063Y-9240746D01*
X8663016Y-9231222D01*
X8653492Y-9212175D01*
X8653492Y-9193127D01*
X8663016Y-9174080D01*
X8682063Y-9164556D01*
X8729682Y-9164556D01*
X8748730Y-9155032D01*
X8815397Y-9107413D02*
X8891587Y-9107413D01*
X8843968Y-9040746D02*
X8843968Y-9212175D01*
X8853492Y-9231222D01*
X8872540Y-9240746D01*
X8891587Y-9240746D01*
X9034444Y-9231222D02*
X9015397Y-9240746D01*
X8977301Y-9240746D01*
X8958254Y-9231222D01*
X8948730Y-9212175D01*
X8948730Y-9135984D01*
X8958254Y-9116937D01*
X8977301Y-9107413D01*
X9015397Y-9107413D01*
X9034444Y-9116937D01*
X9043968Y-9135984D01*
X9043968Y-9155032D01*
X8948730Y-9174080D01*
X9215397Y-9240746D02*
X9215397Y-9040746D01*
X9215397Y-9231222D02*
X9196349Y-9240746D01*
X9158254Y-9240746D01*
X9139206Y-9231222D01*
X9129682Y-9221699D01*
X9120159Y-9202651D01*
X9120159Y-9145508D01*
X9129682Y-9126460D01*
X9139206Y-9116937D01*
X9158254Y-9107413D01*
X9196349Y-9107413D01*
X9215397Y-9116937D01*
X9291587Y-9316937D02*
X9301111Y-9307413D01*
X9320159Y-9278841D01*
X9329682Y-9259794D01*
X9339206Y-9231222D01*
X9348730Y-9183603D01*
X9348730Y-9145508D01*
X9339206Y-9097889D01*
X9329682Y-9069318D01*
X9320159Y-9050270D01*
X9301111Y-9021699D01*
X9291587Y-9012175D01*
M02*
