%FSLAX45Y45*%
G04 Gerber Fmt 4.5, Leading zero omitted, Abs format (unit mm)*
G04 Created by KiCad (PCBNEW (6.0.4)) date 2022-04-03 16:10:39*
%MOMM*%
%LPD*%
G01*
G04 APERTURE LIST*
%TA.AperFunction,Profile*%
%ADD10C,0.025400*%
%TD*%
%ADD11C,0.200000*%
%ADD12C,0.080000*%
%ADD13C,0.101600*%
%ADD14C,0.127000*%
G04 APERTURE END LIST*
D10*
X2540000Y-2540000D02*
X12319000Y-2540000D01*
X12319000Y-2540000D02*
X12319000Y-8509000D01*
X12319000Y-8509000D02*
X2540000Y-8509000D01*
X2540000Y-8509000D02*
X2540000Y-2540000D01*
D11*
D12*
X2881000Y-6563500D02*
X2961000Y-6643500D01*
X2961000Y-6563500D02*
X2881000Y-6643500D01*
X2881000Y-8087500D02*
X2961000Y-8167500D01*
X2961000Y-8087500D02*
X2881000Y-8167500D01*
X3135000Y-6563500D02*
X3215000Y-6643500D01*
X3215000Y-6563500D02*
X3135000Y-6643500D01*
X3135000Y-8087500D02*
X3215000Y-8167500D01*
X3215000Y-8087500D02*
X3135000Y-8167500D01*
X3389000Y-6563500D02*
X3469000Y-6643500D01*
X3469000Y-6563500D02*
X3389000Y-6643500D01*
X3389000Y-8087500D02*
X3469000Y-8167500D01*
X3469000Y-8087500D02*
X3389000Y-8167500D01*
X3643000Y-6563500D02*
X3723000Y-6643500D01*
X3723000Y-6563500D02*
X3643000Y-6643500D01*
X3643000Y-8087500D02*
X3723000Y-8167500D01*
X3723000Y-8087500D02*
X3643000Y-8167500D01*
X3897000Y-6563500D02*
X3977000Y-6643500D01*
X3977000Y-6563500D02*
X3897000Y-6643500D01*
X3897000Y-8087500D02*
X3977000Y-8167500D01*
X3977000Y-8087500D02*
X3897000Y-8167500D01*
X4151000Y-6563500D02*
X4231000Y-6643500D01*
X4231000Y-6563500D02*
X4151000Y-6643500D01*
X4151000Y-8087500D02*
X4231000Y-8167500D01*
X4231000Y-8087500D02*
X4151000Y-8167500D01*
X4405000Y-6563500D02*
X4485000Y-6643500D01*
X4485000Y-6563500D02*
X4405000Y-6643500D01*
X4405000Y-8087500D02*
X4485000Y-8167500D01*
X4485000Y-8087500D02*
X4405000Y-8167500D01*
X4659000Y-6563500D02*
X4739000Y-6643500D01*
X4739000Y-6563500D02*
X4659000Y-6643500D01*
X4659000Y-8087500D02*
X4739000Y-8167500D01*
X4739000Y-8087500D02*
X4659000Y-8167500D01*
X4913000Y-6563500D02*
X4993000Y-6643500D01*
X4993000Y-6563500D02*
X4913000Y-6643500D01*
X4913000Y-8087500D02*
X4993000Y-8167500D01*
X4993000Y-8087500D02*
X4913000Y-8167500D01*
X5167000Y-6563500D02*
X5247000Y-6643500D01*
X5247000Y-6563500D02*
X5167000Y-6643500D01*
X5167000Y-8087500D02*
X5247000Y-8167500D01*
X5247000Y-8087500D02*
X5167000Y-8167500D01*
X5421000Y-6563500D02*
X5501000Y-6643500D01*
X5501000Y-6563500D02*
X5421000Y-6643500D01*
X5421000Y-8087500D02*
X5501000Y-8167500D01*
X5501000Y-8087500D02*
X5421000Y-8167500D01*
X5675000Y-6563500D02*
X5755000Y-6643500D01*
X5755000Y-6563500D02*
X5675000Y-6643500D01*
X5675000Y-8087500D02*
X5755000Y-8167500D01*
X5755000Y-8087500D02*
X5675000Y-8167500D01*
X5929000Y-6563500D02*
X6009000Y-6643500D01*
X6009000Y-6563500D02*
X5929000Y-6643500D01*
X5929000Y-8087500D02*
X6009000Y-8167500D01*
X6009000Y-8087500D02*
X5929000Y-8167500D01*
X6183000Y-6563500D02*
X6263000Y-6643500D01*
X6263000Y-6563500D02*
X6183000Y-6643500D01*
X6183000Y-8087500D02*
X6263000Y-8167500D01*
X6263000Y-8087500D02*
X6183000Y-8167500D01*
X6437000Y-6563500D02*
X6517000Y-6643500D01*
X6517000Y-6563500D02*
X6437000Y-6643500D01*
X6437000Y-8087500D02*
X6517000Y-8167500D01*
X6517000Y-8087500D02*
X6437000Y-8167500D01*
X6691000Y-6563500D02*
X6771000Y-6643500D01*
X6771000Y-6563500D02*
X6691000Y-6643500D01*
X6691000Y-8087500D02*
X6771000Y-8167500D01*
X6771000Y-8087500D02*
X6691000Y-8167500D01*
D13*
X10464800Y-2921000D02*
G75*
G03*
X10464800Y-2921000I-50800J0D01*
G01*
X10464800Y-3175000D02*
G75*
G03*
X10464800Y-3175000I-50800J0D01*
G01*
X10464800Y-3429000D02*
G75*
G03*
X10464800Y-3429000I-50800J0D01*
G01*
X10464800Y-3683000D02*
G75*
G03*
X10464800Y-3683000I-50800J0D01*
G01*
X10464800Y-3937000D02*
G75*
G03*
X10464800Y-3937000I-50800J0D01*
G01*
X10464800Y-4191000D02*
G75*
G03*
X10464800Y-4191000I-50800J0D01*
G01*
X10464800Y-4445000D02*
G75*
G03*
X10464800Y-4445000I-50800J0D01*
G01*
X10464800Y-4699000D02*
G75*
G03*
X10464800Y-4699000I-50800J0D01*
G01*
X10464800Y-4953000D02*
G75*
G03*
X10464800Y-4953000I-50800J0D01*
G01*
X10464800Y-5207000D02*
G75*
G03*
X10464800Y-5207000I-50800J0D01*
G01*
X10464800Y-5461000D02*
G75*
G03*
X10464800Y-5461000I-50800J0D01*
G01*
X10464800Y-5715000D02*
G75*
G03*
X10464800Y-5715000I-50800J0D01*
G01*
X11988800Y-2921000D02*
G75*
G03*
X11988800Y-2921000I-50800J0D01*
G01*
X11988800Y-3175000D02*
G75*
G03*
X11988800Y-3175000I-50800J0D01*
G01*
X11988800Y-3429000D02*
G75*
G03*
X11988800Y-3429000I-50800J0D01*
G01*
X11988800Y-3683000D02*
G75*
G03*
X11988800Y-3683000I-50800J0D01*
G01*
X11988800Y-3937000D02*
G75*
G03*
X11988800Y-3937000I-50800J0D01*
G01*
X11988800Y-4191000D02*
G75*
G03*
X11988800Y-4191000I-50800J0D01*
G01*
X11988800Y-4445000D02*
G75*
G03*
X11988800Y-4445000I-50800J0D01*
G01*
X11988800Y-4699000D02*
G75*
G03*
X11988800Y-4699000I-50800J0D01*
G01*
X11988800Y-4953000D02*
G75*
G03*
X11988800Y-4953000I-50800J0D01*
G01*
X11988800Y-5207000D02*
G75*
G03*
X11988800Y-5207000I-50800J0D01*
G01*
X11988800Y-5461000D02*
G75*
G03*
X11988800Y-5461000I-50800J0D01*
G01*
X11988800Y-5715000D02*
G75*
G03*
X11988800Y-5715000I-50800J0D01*
G01*
D14*
X3256026Y-5283454D02*
X3256026Y-5410454D01*
X3192526Y-5346954D02*
X3319526Y-5346954D01*
D11*
X3202526Y-5219954D02*
X3202526Y-5473954D01*
X3309526Y-5219954D02*
X3309526Y-5473954D01*
X3202526Y-5473954D02*
G75*
G03*
X3309526Y-5473954I53500J0D01*
G01*
X3309526Y-5219954D02*
G75*
G03*
X3202526Y-5219954I-53500J0D01*
G01*
D14*
X3456178Y-5283454D02*
X3456178Y-5410454D01*
X3392678Y-5346954D02*
X3519678Y-5346954D01*
D11*
X3402678Y-5219954D02*
X3402678Y-5473954D01*
X3509678Y-5219954D02*
X3509678Y-5473954D01*
X3402678Y-5473954D02*
G75*
G03*
X3509678Y-5473954I53500J0D01*
G01*
X3509678Y-5219954D02*
G75*
G03*
X3402678Y-5219954I-53500J0D01*
G01*
D14*
X3655822Y-5283454D02*
X3655822Y-5410454D01*
X3592322Y-5346954D02*
X3719322Y-5346954D01*
D11*
X3602322Y-5219954D02*
X3602322Y-5473954D01*
X3709322Y-5219954D02*
X3709322Y-5473954D01*
X3602322Y-5473954D02*
G75*
G03*
X3709322Y-5473954I53500J0D01*
G01*
X3709322Y-5219954D02*
G75*
G03*
X3602322Y-5219954I-53500J0D01*
G01*
D14*
X3855974Y-5283454D02*
X3855974Y-5410454D01*
X3792474Y-5346954D02*
X3919474Y-5346954D01*
D11*
X3802474Y-5219954D02*
X3802474Y-5473954D01*
X3909474Y-5219954D02*
X3909474Y-5473954D01*
X3802474Y-5473954D02*
G75*
G03*
X3909474Y-5473954I53500J0D01*
G01*
X3909474Y-5219954D02*
G75*
G03*
X3802474Y-5219954I-53500J0D01*
G01*
D14*
X5796026Y-4521454D02*
X5796026Y-4648454D01*
X5732526Y-4584954D02*
X5859526Y-4584954D01*
D11*
X5742526Y-4457954D02*
X5742526Y-4711954D01*
X5849526Y-4457954D02*
X5849526Y-4711954D01*
X5742526Y-4711954D02*
G75*
G03*
X5849526Y-4711954I53500J0D01*
G01*
X5849526Y-4457954D02*
G75*
G03*
X5742526Y-4457954I-53500J0D01*
G01*
D14*
X5996178Y-4521454D02*
X5996178Y-4648454D01*
X5932678Y-4584954D02*
X6059678Y-4584954D01*
D11*
X5942678Y-4457954D02*
X5942678Y-4711954D01*
X6049678Y-4457954D02*
X6049678Y-4711954D01*
X5942678Y-4711954D02*
G75*
G03*
X6049678Y-4711954I53500J0D01*
G01*
X6049678Y-4457954D02*
G75*
G03*
X5942678Y-4457954I-53500J0D01*
G01*
D14*
X6195822Y-4521454D02*
X6195822Y-4648454D01*
X6132322Y-4584954D02*
X6259322Y-4584954D01*
D11*
X6142322Y-4457954D02*
X6142322Y-4711954D01*
X6249322Y-4457954D02*
X6249322Y-4711954D01*
X6142322Y-4711954D02*
G75*
G03*
X6249322Y-4711954I53500J0D01*
G01*
X6249322Y-4457954D02*
G75*
G03*
X6142322Y-4457954I-53500J0D01*
G01*
D14*
X6395974Y-4521454D02*
X6395974Y-4648454D01*
X6332474Y-4584954D02*
X6459474Y-4584954D01*
D11*
X6342474Y-4457954D02*
X6342474Y-4711954D01*
X6449474Y-4457954D02*
X6449474Y-4711954D01*
X6342474Y-4711954D02*
G75*
G03*
X6449474Y-4711954I53500J0D01*
G01*
X6449474Y-4457954D02*
G75*
G03*
X6342474Y-4457954I-53500J0D01*
G01*
D14*
X8336026Y-5283454D02*
X8336026Y-5410454D01*
X8272526Y-5346954D02*
X8399526Y-5346954D01*
D11*
X8282526Y-5219954D02*
X8282526Y-5473954D01*
X8389526Y-5219954D02*
X8389526Y-5473954D01*
X8282526Y-5473954D02*
G75*
G03*
X8389526Y-5473954I53500J0D01*
G01*
X8389526Y-5219954D02*
G75*
G03*
X8282526Y-5219954I-53500J0D01*
G01*
D14*
X8536178Y-5283454D02*
X8536178Y-5410454D01*
X8472678Y-5346954D02*
X8599678Y-5346954D01*
D11*
X8482678Y-5219954D02*
X8482678Y-5473954D01*
X8589678Y-5219954D02*
X8589678Y-5473954D01*
X8482678Y-5473954D02*
G75*
G03*
X8589678Y-5473954I53500J0D01*
G01*
X8589678Y-5219954D02*
G75*
G03*
X8482678Y-5219954I-53500J0D01*
G01*
D14*
X8735822Y-5283454D02*
X8735822Y-5410454D01*
X8672322Y-5346954D02*
X8799322Y-5346954D01*
D11*
X8682322Y-5219954D02*
X8682322Y-5473954D01*
X8789322Y-5219954D02*
X8789322Y-5473954D01*
X8682322Y-5473954D02*
G75*
G03*
X8789322Y-5473954I53500J0D01*
G01*
X8789322Y-5219954D02*
G75*
G03*
X8682322Y-5219954I-53500J0D01*
G01*
D14*
X8935974Y-5283454D02*
X8935974Y-5410454D01*
X8872474Y-5346954D02*
X8999474Y-5346954D01*
D11*
X8882474Y-5219954D02*
X8882474Y-5473954D01*
X8989474Y-5219954D02*
X8989474Y-5473954D01*
X8882474Y-5473954D02*
G75*
G03*
X8989474Y-5473954I53500J0D01*
G01*
X8989474Y-5219954D02*
G75*
G03*
X8882474Y-5219954I-53500J0D01*
G01*
D14*
X10876026Y-8077454D02*
X10876026Y-8204454D01*
X10812526Y-8140954D02*
X10939526Y-8140954D01*
D11*
X10822526Y-8013954D02*
X10822526Y-8267954D01*
X10929526Y-8013954D02*
X10929526Y-8267954D01*
X10822526Y-8267954D02*
G75*
G03*
X10929526Y-8267954I53500J0D01*
G01*
X10929526Y-8013954D02*
G75*
G03*
X10822526Y-8013954I-53500J0D01*
G01*
D14*
X11076178Y-8077454D02*
X11076178Y-8204454D01*
X11012678Y-8140954D02*
X11139678Y-8140954D01*
D11*
X11022678Y-8013954D02*
X11022678Y-8267954D01*
X11129678Y-8013954D02*
X11129678Y-8267954D01*
X11022678Y-8267954D02*
G75*
G03*
X11129678Y-8267954I53500J0D01*
G01*
X11129678Y-8013954D02*
G75*
G03*
X11022678Y-8013954I-53500J0D01*
G01*
D14*
X11275822Y-8077454D02*
X11275822Y-8204454D01*
X11212322Y-8140954D02*
X11339322Y-8140954D01*
D11*
X11222322Y-8013954D02*
X11222322Y-8267954D01*
X11329322Y-8013954D02*
X11329322Y-8267954D01*
X11222322Y-8267954D02*
G75*
G03*
X11329322Y-8267954I53500J0D01*
G01*
X11329322Y-8013954D02*
G75*
G03*
X11222322Y-8013954I-53500J0D01*
G01*
D14*
X11475974Y-8077454D02*
X11475974Y-8204454D01*
X11412474Y-8140954D02*
X11539474Y-8140954D01*
D11*
X11422474Y-8013954D02*
X11422474Y-8267954D01*
X11529474Y-8013954D02*
X11529474Y-8267954D01*
X11422474Y-8267954D02*
G75*
G03*
X11529474Y-8267954I53500J0D01*
G01*
X11529474Y-8013954D02*
G75*
G03*
X11422474Y-8013954I-53500J0D01*
G01*
X2796349Y-8820746D02*
X2796349Y-8620746D01*
X2843968Y-8620746D01*
X2872539Y-8630270D01*
X2891587Y-8649318D01*
X2901111Y-8668365D01*
X2910635Y-8706460D01*
X2910635Y-8735032D01*
X2901111Y-8773127D01*
X2891587Y-8792175D01*
X2872539Y-8811222D01*
X2843968Y-8820746D01*
X2796349Y-8820746D01*
X2996349Y-8820746D02*
X2996349Y-8687413D01*
X2996349Y-8725508D02*
X3005873Y-8706460D01*
X3015397Y-8696937D01*
X3034444Y-8687413D01*
X3053492Y-8687413D01*
X3120158Y-8820746D02*
X3120158Y-8687413D01*
X3120158Y-8620746D02*
X3110635Y-8630270D01*
X3120158Y-8639794D01*
X3129682Y-8630270D01*
X3120158Y-8620746D01*
X3120158Y-8639794D01*
X3243968Y-8820746D02*
X3224920Y-8811222D01*
X3215397Y-8792175D01*
X3215397Y-8620746D01*
X3348730Y-8820746D02*
X3329682Y-8811222D01*
X3320158Y-8792175D01*
X3320158Y-8620746D01*
X3577301Y-8820746D02*
X3577301Y-8620746D01*
X3643968Y-8763603D01*
X3710635Y-8620746D01*
X3710635Y-8820746D01*
X3891587Y-8820746D02*
X3891587Y-8715984D01*
X3882063Y-8696937D01*
X3863016Y-8687413D01*
X3824920Y-8687413D01*
X3805873Y-8696937D01*
X3891587Y-8811222D02*
X3872539Y-8820746D01*
X3824920Y-8820746D01*
X3805873Y-8811222D01*
X3796349Y-8792175D01*
X3796349Y-8773127D01*
X3805873Y-8754080D01*
X3824920Y-8744556D01*
X3872539Y-8744556D01*
X3891587Y-8735032D01*
X3986825Y-8687413D02*
X3986825Y-8887413D01*
X3986825Y-8696937D02*
X4005873Y-8687413D01*
X4043968Y-8687413D01*
X4063016Y-8696937D01*
X4072539Y-8706460D01*
X4082063Y-8725508D01*
X4082063Y-8782651D01*
X4072539Y-8801699D01*
X4063016Y-8811222D01*
X4043968Y-8820746D01*
X4005873Y-8820746D01*
X3986825Y-8811222D01*
X4167778Y-8801699D02*
X4177301Y-8811222D01*
X4167778Y-8820746D01*
X4158254Y-8811222D01*
X4167778Y-8801699D01*
X4167778Y-8820746D01*
X4167778Y-8696937D02*
X4177301Y-8706460D01*
X4167778Y-8715984D01*
X4158254Y-8706460D01*
X4167778Y-8696937D01*
X4167778Y-8715984D01*
D12*
X2458730Y-9110270D02*
X2538730Y-9190270D01*
X2538730Y-9110270D02*
X2458730Y-9190270D01*
D11*
X2834444Y-9040746D02*
X2853492Y-9040746D01*
X2872539Y-9050270D01*
X2882063Y-9059794D01*
X2891587Y-9078841D01*
X2901111Y-9116937D01*
X2901111Y-9164556D01*
X2891587Y-9202651D01*
X2882063Y-9221699D01*
X2872539Y-9231222D01*
X2853492Y-9240746D01*
X2834444Y-9240746D01*
X2815397Y-9231222D01*
X2805873Y-9221699D01*
X2796349Y-9202651D01*
X2786825Y-9164556D01*
X2786825Y-9116937D01*
X2796349Y-9078841D01*
X2805873Y-9059794D01*
X2815397Y-9050270D01*
X2834444Y-9040746D01*
X2986825Y-9221699D02*
X2996349Y-9231222D01*
X2986825Y-9240746D01*
X2977301Y-9231222D01*
X2986825Y-9221699D01*
X2986825Y-9240746D01*
X3110635Y-9126460D02*
X3091587Y-9116937D01*
X3082063Y-9107413D01*
X3072539Y-9088365D01*
X3072539Y-9078841D01*
X3082063Y-9059794D01*
X3091587Y-9050270D01*
X3110635Y-9040746D01*
X3148730Y-9040746D01*
X3167778Y-9050270D01*
X3177301Y-9059794D01*
X3186825Y-9078841D01*
X3186825Y-9088365D01*
X3177301Y-9107413D01*
X3167778Y-9116937D01*
X3148730Y-9126460D01*
X3110635Y-9126460D01*
X3091587Y-9135984D01*
X3082063Y-9145508D01*
X3072539Y-9164556D01*
X3072539Y-9202651D01*
X3082063Y-9221699D01*
X3091587Y-9231222D01*
X3110635Y-9240746D01*
X3148730Y-9240746D01*
X3167778Y-9231222D01*
X3177301Y-9221699D01*
X3186825Y-9202651D01*
X3186825Y-9164556D01*
X3177301Y-9145508D01*
X3167778Y-9135984D01*
X3148730Y-9126460D01*
X3310635Y-9040746D02*
X3329682Y-9040746D01*
X3348730Y-9050270D01*
X3358254Y-9059794D01*
X3367778Y-9078841D01*
X3377301Y-9116937D01*
X3377301Y-9164556D01*
X3367778Y-9202651D01*
X3358254Y-9221699D01*
X3348730Y-9231222D01*
X3329682Y-9240746D01*
X3310635Y-9240746D01*
X3291587Y-9231222D01*
X3282063Y-9221699D01*
X3272539Y-9202651D01*
X3263016Y-9164556D01*
X3263016Y-9116937D01*
X3272539Y-9078841D01*
X3282063Y-9059794D01*
X3291587Y-9050270D01*
X3310635Y-9040746D01*
X3501111Y-9040746D02*
X3520158Y-9040746D01*
X3539206Y-9050270D01*
X3548730Y-9059794D01*
X3558254Y-9078841D01*
X3567778Y-9116937D01*
X3567778Y-9164556D01*
X3558254Y-9202651D01*
X3548730Y-9221699D01*
X3539206Y-9231222D01*
X3520158Y-9240746D01*
X3501111Y-9240746D01*
X3482063Y-9231222D01*
X3472539Y-9221699D01*
X3463016Y-9202651D01*
X3453492Y-9164556D01*
X3453492Y-9116937D01*
X3463016Y-9078841D01*
X3472539Y-9059794D01*
X3482063Y-9050270D01*
X3501111Y-9040746D01*
X3653492Y-9240746D02*
X3653492Y-9107413D01*
X3653492Y-9126460D02*
X3663016Y-9116937D01*
X3682063Y-9107413D01*
X3710635Y-9107413D01*
X3729682Y-9116937D01*
X3739206Y-9135984D01*
X3739206Y-9240746D01*
X3739206Y-9135984D02*
X3748730Y-9116937D01*
X3767778Y-9107413D01*
X3796349Y-9107413D01*
X3815397Y-9116937D01*
X3824920Y-9135984D01*
X3824920Y-9240746D01*
X3920158Y-9240746D02*
X3920158Y-9107413D01*
X3920158Y-9126460D02*
X3929682Y-9116937D01*
X3948730Y-9107413D01*
X3977301Y-9107413D01*
X3996349Y-9116937D01*
X4005873Y-9135984D01*
X4005873Y-9240746D01*
X4005873Y-9135984D02*
X4015397Y-9116937D01*
X4034444Y-9107413D01*
X4063016Y-9107413D01*
X4082063Y-9116937D01*
X4091587Y-9135984D01*
X4091587Y-9240746D01*
X4482063Y-9031222D02*
X4310635Y-9288365D01*
X4739206Y-9040746D02*
X4758254Y-9040746D01*
X4777301Y-9050270D01*
X4786825Y-9059794D01*
X4796349Y-9078841D01*
X4805873Y-9116937D01*
X4805873Y-9164556D01*
X4796349Y-9202651D01*
X4786825Y-9221699D01*
X4777301Y-9231222D01*
X4758254Y-9240746D01*
X4739206Y-9240746D01*
X4720159Y-9231222D01*
X4710635Y-9221699D01*
X4701111Y-9202651D01*
X4691587Y-9164556D01*
X4691587Y-9116937D01*
X4701111Y-9078841D01*
X4710635Y-9059794D01*
X4720159Y-9050270D01*
X4739206Y-9040746D01*
X4891587Y-9221699D02*
X4901111Y-9231222D01*
X4891587Y-9240746D01*
X4882063Y-9231222D01*
X4891587Y-9221699D01*
X4891587Y-9240746D01*
X5024920Y-9040746D02*
X5043968Y-9040746D01*
X5063016Y-9050270D01*
X5072540Y-9059794D01*
X5082063Y-9078841D01*
X5091587Y-9116937D01*
X5091587Y-9164556D01*
X5082063Y-9202651D01*
X5072540Y-9221699D01*
X5063016Y-9231222D01*
X5043968Y-9240746D01*
X5024920Y-9240746D01*
X5005873Y-9231222D01*
X4996349Y-9221699D01*
X4986825Y-9202651D01*
X4977301Y-9164556D01*
X4977301Y-9116937D01*
X4986825Y-9078841D01*
X4996349Y-9059794D01*
X5005873Y-9050270D01*
X5024920Y-9040746D01*
X5158254Y-9040746D02*
X5282063Y-9040746D01*
X5215397Y-9116937D01*
X5243968Y-9116937D01*
X5263016Y-9126460D01*
X5272540Y-9135984D01*
X5282063Y-9155032D01*
X5282063Y-9202651D01*
X5272540Y-9221699D01*
X5263016Y-9231222D01*
X5243968Y-9240746D01*
X5186825Y-9240746D01*
X5167778Y-9231222D01*
X5158254Y-9221699D01*
X5472540Y-9240746D02*
X5358254Y-9240746D01*
X5415397Y-9240746D02*
X5415397Y-9040746D01*
X5396349Y-9069318D01*
X5377301Y-9088365D01*
X5358254Y-9097889D01*
X5653492Y-9040746D02*
X5558254Y-9040746D01*
X5548730Y-9135984D01*
X5558254Y-9126460D01*
X5577301Y-9116937D01*
X5624920Y-9116937D01*
X5643968Y-9126460D01*
X5653492Y-9135984D01*
X5663016Y-9155032D01*
X5663016Y-9202651D01*
X5653492Y-9221699D01*
X5643968Y-9231222D01*
X5624920Y-9240746D01*
X5577301Y-9240746D01*
X5558254Y-9231222D01*
X5548730Y-9221699D01*
X5739206Y-9040746D02*
X5739206Y-9078841D01*
X5815397Y-9040746D02*
X5815397Y-9078841D01*
X6110635Y-9316937D02*
X6101111Y-9307413D01*
X6082063Y-9278841D01*
X6072539Y-9259794D01*
X6063016Y-9231222D01*
X6053492Y-9183603D01*
X6053492Y-9145508D01*
X6063016Y-9097889D01*
X6072539Y-9069318D01*
X6082063Y-9050270D01*
X6101111Y-9021699D01*
X6110635Y-9012175D01*
X6167778Y-9040746D02*
X6291587Y-9040746D01*
X6224920Y-9116937D01*
X6253492Y-9116937D01*
X6272539Y-9126460D01*
X6282063Y-9135984D01*
X6291587Y-9155032D01*
X6291587Y-9202651D01*
X6282063Y-9221699D01*
X6272539Y-9231222D01*
X6253492Y-9240746D01*
X6196349Y-9240746D01*
X6177301Y-9231222D01*
X6167778Y-9221699D01*
X6367778Y-9059794D02*
X6377301Y-9050270D01*
X6396349Y-9040746D01*
X6443968Y-9040746D01*
X6463016Y-9050270D01*
X6472539Y-9059794D01*
X6482063Y-9078841D01*
X6482063Y-9097889D01*
X6472539Y-9126460D01*
X6358254Y-9240746D01*
X6482063Y-9240746D01*
X6720158Y-9240746D02*
X6720158Y-9040746D01*
X6805873Y-9240746D02*
X6805873Y-9135984D01*
X6796349Y-9116937D01*
X6777301Y-9107413D01*
X6748730Y-9107413D01*
X6729682Y-9116937D01*
X6720158Y-9126460D01*
X6929682Y-9240746D02*
X6910635Y-9231222D01*
X6901111Y-9221699D01*
X6891587Y-9202651D01*
X6891587Y-9145508D01*
X6901111Y-9126460D01*
X6910635Y-9116937D01*
X6929682Y-9107413D01*
X6958254Y-9107413D01*
X6977301Y-9116937D01*
X6986825Y-9126460D01*
X6996349Y-9145508D01*
X6996349Y-9202651D01*
X6986825Y-9221699D01*
X6977301Y-9231222D01*
X6958254Y-9240746D01*
X6929682Y-9240746D01*
X7110635Y-9240746D02*
X7091587Y-9231222D01*
X7082063Y-9212175D01*
X7082063Y-9040746D01*
X7263016Y-9231222D02*
X7243968Y-9240746D01*
X7205873Y-9240746D01*
X7186825Y-9231222D01*
X7177301Y-9212175D01*
X7177301Y-9135984D01*
X7186825Y-9116937D01*
X7205873Y-9107413D01*
X7243968Y-9107413D01*
X7263016Y-9116937D01*
X7272539Y-9135984D01*
X7272539Y-9155032D01*
X7177301Y-9174080D01*
X7348730Y-9231222D02*
X7367778Y-9240746D01*
X7405873Y-9240746D01*
X7424920Y-9231222D01*
X7434444Y-9212175D01*
X7434444Y-9202651D01*
X7424920Y-9183603D01*
X7405873Y-9174080D01*
X7377301Y-9174080D01*
X7358254Y-9164556D01*
X7348730Y-9145508D01*
X7348730Y-9135984D01*
X7358254Y-9116937D01*
X7377301Y-9107413D01*
X7405873Y-9107413D01*
X7424920Y-9116937D01*
X7501111Y-9316937D02*
X7510635Y-9307413D01*
X7529682Y-9278841D01*
X7539206Y-9259794D01*
X7548730Y-9231222D01*
X7558254Y-9183603D01*
X7558254Y-9145508D01*
X7548730Y-9097889D01*
X7539206Y-9069318D01*
X7529682Y-9050270D01*
X7510635Y-9021699D01*
X7501111Y-9012175D01*
D13*
X2538730Y-9414270D02*
G75*
G03*
X2538730Y-9414270I-50800J0D01*
G01*
D11*
X2901111Y-9504746D02*
X2786825Y-9504746D01*
X2843968Y-9504746D02*
X2843968Y-9304746D01*
X2824920Y-9333318D01*
X2805873Y-9352365D01*
X2786825Y-9361889D01*
X2986825Y-9485699D02*
X2996349Y-9495222D01*
X2986825Y-9504746D01*
X2977301Y-9495222D01*
X2986825Y-9485699D01*
X2986825Y-9504746D01*
X3120158Y-9304746D02*
X3139206Y-9304746D01*
X3158254Y-9314270D01*
X3167778Y-9323794D01*
X3177301Y-9342841D01*
X3186825Y-9380937D01*
X3186825Y-9428556D01*
X3177301Y-9466651D01*
X3167778Y-9485699D01*
X3158254Y-9495222D01*
X3139206Y-9504746D01*
X3120158Y-9504746D01*
X3101111Y-9495222D01*
X3091587Y-9485699D01*
X3082063Y-9466651D01*
X3072539Y-9428556D01*
X3072539Y-9380937D01*
X3082063Y-9342841D01*
X3091587Y-9323794D01*
X3101111Y-9314270D01*
X3120158Y-9304746D01*
X3377301Y-9504746D02*
X3263016Y-9504746D01*
X3320158Y-9504746D02*
X3320158Y-9304746D01*
X3301111Y-9333318D01*
X3282063Y-9352365D01*
X3263016Y-9361889D01*
X3548730Y-9304746D02*
X3510635Y-9304746D01*
X3491587Y-9314270D01*
X3482063Y-9323794D01*
X3463016Y-9352365D01*
X3453492Y-9390460D01*
X3453492Y-9466651D01*
X3463016Y-9485699D01*
X3472539Y-9495222D01*
X3491587Y-9504746D01*
X3529682Y-9504746D01*
X3548730Y-9495222D01*
X3558254Y-9485699D01*
X3567778Y-9466651D01*
X3567778Y-9419032D01*
X3558254Y-9399984D01*
X3548730Y-9390460D01*
X3529682Y-9380937D01*
X3491587Y-9380937D01*
X3472539Y-9390460D01*
X3463016Y-9399984D01*
X3453492Y-9419032D01*
X3653492Y-9504746D02*
X3653492Y-9371413D01*
X3653492Y-9390460D02*
X3663016Y-9380937D01*
X3682063Y-9371413D01*
X3710635Y-9371413D01*
X3729682Y-9380937D01*
X3739206Y-9399984D01*
X3739206Y-9504746D01*
X3739206Y-9399984D02*
X3748730Y-9380937D01*
X3767778Y-9371413D01*
X3796349Y-9371413D01*
X3815397Y-9380937D01*
X3824920Y-9399984D01*
X3824920Y-9504746D01*
X3920158Y-9504746D02*
X3920158Y-9371413D01*
X3920158Y-9390460D02*
X3929682Y-9380937D01*
X3948730Y-9371413D01*
X3977301Y-9371413D01*
X3996349Y-9380937D01*
X4005873Y-9399984D01*
X4005873Y-9504746D01*
X4005873Y-9399984D02*
X4015397Y-9380937D01*
X4034444Y-9371413D01*
X4063016Y-9371413D01*
X4082063Y-9380937D01*
X4091587Y-9399984D01*
X4091587Y-9504746D01*
X4482063Y-9295222D02*
X4310635Y-9552365D01*
X4739206Y-9304746D02*
X4758254Y-9304746D01*
X4777301Y-9314270D01*
X4786825Y-9323794D01*
X4796349Y-9342841D01*
X4805873Y-9380937D01*
X4805873Y-9428556D01*
X4796349Y-9466651D01*
X4786825Y-9485699D01*
X4777301Y-9495222D01*
X4758254Y-9504746D01*
X4739206Y-9504746D01*
X4720159Y-9495222D01*
X4710635Y-9485699D01*
X4701111Y-9466651D01*
X4691587Y-9428556D01*
X4691587Y-9380937D01*
X4701111Y-9342841D01*
X4710635Y-9323794D01*
X4720159Y-9314270D01*
X4739206Y-9304746D01*
X4891587Y-9485699D02*
X4901111Y-9495222D01*
X4891587Y-9504746D01*
X4882063Y-9495222D01*
X4891587Y-9485699D01*
X4891587Y-9504746D01*
X5024920Y-9304746D02*
X5043968Y-9304746D01*
X5063016Y-9314270D01*
X5072540Y-9323794D01*
X5082063Y-9342841D01*
X5091587Y-9380937D01*
X5091587Y-9428556D01*
X5082063Y-9466651D01*
X5072540Y-9485699D01*
X5063016Y-9495222D01*
X5043968Y-9504746D01*
X5024920Y-9504746D01*
X5005873Y-9495222D01*
X4996349Y-9485699D01*
X4986825Y-9466651D01*
X4977301Y-9428556D01*
X4977301Y-9380937D01*
X4986825Y-9342841D01*
X4996349Y-9323794D01*
X5005873Y-9314270D01*
X5024920Y-9304746D01*
X5263016Y-9371413D02*
X5263016Y-9504746D01*
X5215397Y-9295222D02*
X5167778Y-9438080D01*
X5291587Y-9438080D01*
X5405873Y-9304746D02*
X5424920Y-9304746D01*
X5443968Y-9314270D01*
X5453492Y-9323794D01*
X5463016Y-9342841D01*
X5472540Y-9380937D01*
X5472540Y-9428556D01*
X5463016Y-9466651D01*
X5453492Y-9485699D01*
X5443968Y-9495222D01*
X5424920Y-9504746D01*
X5405873Y-9504746D01*
X5386825Y-9495222D01*
X5377301Y-9485699D01*
X5367778Y-9466651D01*
X5358254Y-9428556D01*
X5358254Y-9380937D01*
X5367778Y-9342841D01*
X5377301Y-9323794D01*
X5386825Y-9314270D01*
X5405873Y-9304746D01*
X5596349Y-9304746D02*
X5615397Y-9304746D01*
X5634444Y-9314270D01*
X5643968Y-9323794D01*
X5653492Y-9342841D01*
X5663016Y-9380937D01*
X5663016Y-9428556D01*
X5653492Y-9466651D01*
X5643968Y-9485699D01*
X5634444Y-9495222D01*
X5615397Y-9504746D01*
X5596349Y-9504746D01*
X5577301Y-9495222D01*
X5567778Y-9485699D01*
X5558254Y-9466651D01*
X5548730Y-9428556D01*
X5548730Y-9380937D01*
X5558254Y-9342841D01*
X5567778Y-9323794D01*
X5577301Y-9314270D01*
X5596349Y-9304746D01*
X5739206Y-9304746D02*
X5739206Y-9342841D01*
X5815397Y-9304746D02*
X5815397Y-9342841D01*
X6110635Y-9580937D02*
X6101111Y-9571413D01*
X6082063Y-9542841D01*
X6072539Y-9523794D01*
X6063016Y-9495222D01*
X6053492Y-9447603D01*
X6053492Y-9409508D01*
X6063016Y-9361889D01*
X6072539Y-9333318D01*
X6082063Y-9314270D01*
X6101111Y-9285699D01*
X6110635Y-9276175D01*
X6177301Y-9323794D02*
X6186825Y-9314270D01*
X6205873Y-9304746D01*
X6253492Y-9304746D01*
X6272539Y-9314270D01*
X6282063Y-9323794D01*
X6291587Y-9342841D01*
X6291587Y-9361889D01*
X6282063Y-9390460D01*
X6167778Y-9504746D01*
X6291587Y-9504746D01*
X6463016Y-9371413D02*
X6463016Y-9504746D01*
X6415397Y-9295222D02*
X6367778Y-9438080D01*
X6491587Y-9438080D01*
X6720158Y-9504746D02*
X6720158Y-9304746D01*
X6805873Y-9504746D02*
X6805873Y-9399984D01*
X6796349Y-9380937D01*
X6777301Y-9371413D01*
X6748730Y-9371413D01*
X6729682Y-9380937D01*
X6720158Y-9390460D01*
X6929682Y-9504746D02*
X6910635Y-9495222D01*
X6901111Y-9485699D01*
X6891587Y-9466651D01*
X6891587Y-9409508D01*
X6901111Y-9390460D01*
X6910635Y-9380937D01*
X6929682Y-9371413D01*
X6958254Y-9371413D01*
X6977301Y-9380937D01*
X6986825Y-9390460D01*
X6996349Y-9409508D01*
X6996349Y-9466651D01*
X6986825Y-9485699D01*
X6977301Y-9495222D01*
X6958254Y-9504746D01*
X6929682Y-9504746D01*
X7110635Y-9504746D02*
X7091587Y-9495222D01*
X7082063Y-9476175D01*
X7082063Y-9304746D01*
X7263016Y-9495222D02*
X7243968Y-9504746D01*
X7205873Y-9504746D01*
X7186825Y-9495222D01*
X7177301Y-9476175D01*
X7177301Y-9399984D01*
X7186825Y-9380937D01*
X7205873Y-9371413D01*
X7243968Y-9371413D01*
X7263016Y-9380937D01*
X7272539Y-9399984D01*
X7272539Y-9419032D01*
X7177301Y-9438080D01*
X7348730Y-9495222D02*
X7367778Y-9504746D01*
X7405873Y-9504746D01*
X7424920Y-9495222D01*
X7434444Y-9476175D01*
X7434444Y-9466651D01*
X7424920Y-9447603D01*
X7405873Y-9438080D01*
X7377301Y-9438080D01*
X7358254Y-9428556D01*
X7348730Y-9409508D01*
X7348730Y-9399984D01*
X7358254Y-9380937D01*
X7377301Y-9371413D01*
X7405873Y-9371413D01*
X7424920Y-9380937D01*
X7501111Y-9580937D02*
X7510635Y-9571413D01*
X7529682Y-9542841D01*
X7539206Y-9523794D01*
X7548730Y-9495222D01*
X7558254Y-9447603D01*
X7558254Y-9409508D01*
X7548730Y-9361889D01*
X7539206Y-9333318D01*
X7529682Y-9314270D01*
X7510635Y-9285699D01*
X7501111Y-9276175D01*
D14*
X2475230Y-9614770D02*
X2475230Y-9741770D01*
X2411730Y-9678270D02*
X2538730Y-9678270D01*
D11*
X2901111Y-9768746D02*
X2786825Y-9768746D01*
X2843968Y-9768746D02*
X2843968Y-9568746D01*
X2824920Y-9597318D01*
X2805873Y-9616365D01*
X2786825Y-9625889D01*
X2986825Y-9749699D02*
X2996349Y-9759222D01*
X2986825Y-9768746D01*
X2977301Y-9759222D01*
X2986825Y-9749699D01*
X2986825Y-9768746D01*
X3072539Y-9587794D02*
X3082063Y-9578270D01*
X3101111Y-9568746D01*
X3148730Y-9568746D01*
X3167778Y-9578270D01*
X3177301Y-9587794D01*
X3186825Y-9606841D01*
X3186825Y-9625889D01*
X3177301Y-9654460D01*
X3063016Y-9768746D01*
X3186825Y-9768746D01*
X3253492Y-9568746D02*
X3386825Y-9568746D01*
X3301111Y-9768746D01*
X3501111Y-9568746D02*
X3520158Y-9568746D01*
X3539206Y-9578270D01*
X3548730Y-9587794D01*
X3558254Y-9606841D01*
X3567778Y-9644937D01*
X3567778Y-9692556D01*
X3558254Y-9730651D01*
X3548730Y-9749699D01*
X3539206Y-9759222D01*
X3520158Y-9768746D01*
X3501111Y-9768746D01*
X3482063Y-9759222D01*
X3472539Y-9749699D01*
X3463016Y-9730651D01*
X3453492Y-9692556D01*
X3453492Y-9644937D01*
X3463016Y-9606841D01*
X3472539Y-9587794D01*
X3482063Y-9578270D01*
X3501111Y-9568746D01*
X3653492Y-9768746D02*
X3653492Y-9635413D01*
X3653492Y-9654460D02*
X3663016Y-9644937D01*
X3682063Y-9635413D01*
X3710635Y-9635413D01*
X3729682Y-9644937D01*
X3739206Y-9663984D01*
X3739206Y-9768746D01*
X3739206Y-9663984D02*
X3748730Y-9644937D01*
X3767778Y-9635413D01*
X3796349Y-9635413D01*
X3815397Y-9644937D01*
X3824920Y-9663984D01*
X3824920Y-9768746D01*
X3920158Y-9768746D02*
X3920158Y-9635413D01*
X3920158Y-9654460D02*
X3929682Y-9644937D01*
X3948730Y-9635413D01*
X3977301Y-9635413D01*
X3996349Y-9644937D01*
X4005873Y-9663984D01*
X4005873Y-9768746D01*
X4005873Y-9663984D02*
X4015397Y-9644937D01*
X4034444Y-9635413D01*
X4063016Y-9635413D01*
X4082063Y-9644937D01*
X4091587Y-9663984D01*
X4091587Y-9768746D01*
X4482063Y-9559222D02*
X4310635Y-9816365D01*
X4739206Y-9568746D02*
X4758254Y-9568746D01*
X4777301Y-9578270D01*
X4786825Y-9587794D01*
X4796349Y-9606841D01*
X4805873Y-9644937D01*
X4805873Y-9692556D01*
X4796349Y-9730651D01*
X4786825Y-9749699D01*
X4777301Y-9759222D01*
X4758254Y-9768746D01*
X4739206Y-9768746D01*
X4720159Y-9759222D01*
X4710635Y-9749699D01*
X4701111Y-9730651D01*
X4691587Y-9692556D01*
X4691587Y-9644937D01*
X4701111Y-9606841D01*
X4710635Y-9587794D01*
X4720159Y-9578270D01*
X4739206Y-9568746D01*
X4891587Y-9749699D02*
X4901111Y-9759222D01*
X4891587Y-9768746D01*
X4882063Y-9759222D01*
X4891587Y-9749699D01*
X4891587Y-9768746D01*
X5024920Y-9568746D02*
X5043968Y-9568746D01*
X5063016Y-9578270D01*
X5072540Y-9587794D01*
X5082063Y-9606841D01*
X5091587Y-9644937D01*
X5091587Y-9692556D01*
X5082063Y-9730651D01*
X5072540Y-9749699D01*
X5063016Y-9759222D01*
X5043968Y-9768746D01*
X5024920Y-9768746D01*
X5005873Y-9759222D01*
X4996349Y-9749699D01*
X4986825Y-9730651D01*
X4977301Y-9692556D01*
X4977301Y-9644937D01*
X4986825Y-9606841D01*
X4996349Y-9587794D01*
X5005873Y-9578270D01*
X5024920Y-9568746D01*
X5272540Y-9568746D02*
X5177301Y-9568746D01*
X5167778Y-9663984D01*
X5177301Y-9654460D01*
X5196349Y-9644937D01*
X5243968Y-9644937D01*
X5263016Y-9654460D01*
X5272540Y-9663984D01*
X5282063Y-9683032D01*
X5282063Y-9730651D01*
X5272540Y-9749699D01*
X5263016Y-9759222D01*
X5243968Y-9768746D01*
X5196349Y-9768746D01*
X5177301Y-9759222D01*
X5167778Y-9749699D01*
X5405873Y-9568746D02*
X5424920Y-9568746D01*
X5443968Y-9578270D01*
X5453492Y-9587794D01*
X5463016Y-9606841D01*
X5472540Y-9644937D01*
X5472540Y-9692556D01*
X5463016Y-9730651D01*
X5453492Y-9749699D01*
X5443968Y-9759222D01*
X5424920Y-9768746D01*
X5405873Y-9768746D01*
X5386825Y-9759222D01*
X5377301Y-9749699D01*
X5367778Y-9730651D01*
X5358254Y-9692556D01*
X5358254Y-9644937D01*
X5367778Y-9606841D01*
X5377301Y-9587794D01*
X5386825Y-9578270D01*
X5405873Y-9568746D01*
X5596349Y-9568746D02*
X5615397Y-9568746D01*
X5634444Y-9578270D01*
X5643968Y-9587794D01*
X5653492Y-9606841D01*
X5663016Y-9644937D01*
X5663016Y-9692556D01*
X5653492Y-9730651D01*
X5643968Y-9749699D01*
X5634444Y-9759222D01*
X5615397Y-9768746D01*
X5596349Y-9768746D01*
X5577301Y-9759222D01*
X5567778Y-9749699D01*
X5558254Y-9730651D01*
X5548730Y-9692556D01*
X5548730Y-9644937D01*
X5558254Y-9606841D01*
X5567778Y-9587794D01*
X5577301Y-9578270D01*
X5596349Y-9568746D01*
X5739206Y-9568746D02*
X5739206Y-9606841D01*
X5815397Y-9568746D02*
X5815397Y-9606841D01*
X6110635Y-9844937D02*
X6101111Y-9835413D01*
X6082063Y-9806841D01*
X6072539Y-9787794D01*
X6063016Y-9759222D01*
X6053492Y-9711603D01*
X6053492Y-9673508D01*
X6063016Y-9625889D01*
X6072539Y-9597318D01*
X6082063Y-9578270D01*
X6101111Y-9549699D01*
X6110635Y-9540175D01*
X6224920Y-9568746D02*
X6243968Y-9568746D01*
X6263016Y-9578270D01*
X6272539Y-9587794D01*
X6282063Y-9606841D01*
X6291587Y-9644937D01*
X6291587Y-9692556D01*
X6282063Y-9730651D01*
X6272539Y-9749699D01*
X6263016Y-9759222D01*
X6243968Y-9768746D01*
X6224920Y-9768746D01*
X6205873Y-9759222D01*
X6196349Y-9749699D01*
X6186825Y-9730651D01*
X6177301Y-9692556D01*
X6177301Y-9644937D01*
X6186825Y-9606841D01*
X6196349Y-9587794D01*
X6205873Y-9578270D01*
X6224920Y-9568746D01*
X6529682Y-9768746D02*
X6529682Y-9568746D01*
X6615397Y-9768746D02*
X6615397Y-9663984D01*
X6605873Y-9644937D01*
X6586825Y-9635413D01*
X6558254Y-9635413D01*
X6539206Y-9644937D01*
X6529682Y-9654460D01*
X6739206Y-9768746D02*
X6720158Y-9759222D01*
X6710635Y-9749699D01*
X6701111Y-9730651D01*
X6701111Y-9673508D01*
X6710635Y-9654460D01*
X6720158Y-9644937D01*
X6739206Y-9635413D01*
X6767778Y-9635413D01*
X6786825Y-9644937D01*
X6796349Y-9654460D01*
X6805873Y-9673508D01*
X6805873Y-9730651D01*
X6796349Y-9749699D01*
X6786825Y-9759222D01*
X6767778Y-9768746D01*
X6739206Y-9768746D01*
X6920158Y-9768746D02*
X6901111Y-9759222D01*
X6891587Y-9740175D01*
X6891587Y-9568746D01*
X7072539Y-9759222D02*
X7053492Y-9768746D01*
X7015397Y-9768746D01*
X6996349Y-9759222D01*
X6986825Y-9740175D01*
X6986825Y-9663984D01*
X6996349Y-9644937D01*
X7015397Y-9635413D01*
X7053492Y-9635413D01*
X7072539Y-9644937D01*
X7082063Y-9663984D01*
X7082063Y-9683032D01*
X6986825Y-9702080D01*
X7158254Y-9759222D02*
X7177301Y-9768746D01*
X7215397Y-9768746D01*
X7234444Y-9759222D01*
X7243968Y-9740175D01*
X7243968Y-9730651D01*
X7234444Y-9711603D01*
X7215397Y-9702080D01*
X7186825Y-9702080D01*
X7167778Y-9692556D01*
X7158254Y-9673508D01*
X7158254Y-9663984D01*
X7167778Y-9644937D01*
X7186825Y-9635413D01*
X7215397Y-9635413D01*
X7234444Y-9644937D01*
X7482063Y-9692556D02*
X7634444Y-9692556D01*
X7558254Y-9768746D02*
X7558254Y-9616365D01*
X7986825Y-9768746D02*
X7872539Y-9768746D01*
X7929682Y-9768746D02*
X7929682Y-9568746D01*
X7910635Y-9597318D01*
X7891587Y-9616365D01*
X7872539Y-9625889D01*
X8158254Y-9568746D02*
X8120158Y-9568746D01*
X8101111Y-9578270D01*
X8091587Y-9587794D01*
X8072539Y-9616365D01*
X8063016Y-9654460D01*
X8063016Y-9730651D01*
X8072539Y-9749699D01*
X8082063Y-9759222D01*
X8101111Y-9768746D01*
X8139206Y-9768746D01*
X8158254Y-9759222D01*
X8167778Y-9749699D01*
X8177301Y-9730651D01*
X8177301Y-9683032D01*
X8167778Y-9663984D01*
X8158254Y-9654460D01*
X8139206Y-9644937D01*
X8101111Y-9644937D01*
X8082063Y-9654460D01*
X8072539Y-9663984D01*
X8063016Y-9683032D01*
X8405873Y-9759222D02*
X8424920Y-9768746D01*
X8463016Y-9768746D01*
X8482063Y-9759222D01*
X8491587Y-9740175D01*
X8491587Y-9730651D01*
X8482063Y-9711603D01*
X8463016Y-9702080D01*
X8434444Y-9702080D01*
X8415397Y-9692556D01*
X8405873Y-9673508D01*
X8405873Y-9663984D01*
X8415397Y-9644937D01*
X8434444Y-9635413D01*
X8463016Y-9635413D01*
X8482063Y-9644937D01*
X8605873Y-9768746D02*
X8586825Y-9759222D01*
X8577301Y-9740175D01*
X8577301Y-9568746D01*
X8710635Y-9768746D02*
X8691587Y-9759222D01*
X8682063Y-9749699D01*
X8672540Y-9730651D01*
X8672540Y-9673508D01*
X8682063Y-9654460D01*
X8691587Y-9644937D01*
X8710635Y-9635413D01*
X8739206Y-9635413D01*
X8758254Y-9644937D01*
X8767778Y-9654460D01*
X8777301Y-9673508D01*
X8777301Y-9730651D01*
X8767778Y-9749699D01*
X8758254Y-9759222D01*
X8739206Y-9768746D01*
X8710635Y-9768746D01*
X8834444Y-9635413D02*
X8910635Y-9635413D01*
X8863016Y-9568746D02*
X8863016Y-9740175D01*
X8872540Y-9759222D01*
X8891587Y-9768746D01*
X8910635Y-9768746D01*
X8967778Y-9759222D02*
X8986825Y-9768746D01*
X9024920Y-9768746D01*
X9043968Y-9759222D01*
X9053492Y-9740175D01*
X9053492Y-9730651D01*
X9043968Y-9711603D01*
X9024920Y-9702080D01*
X8996349Y-9702080D01*
X8977301Y-9692556D01*
X8967778Y-9673508D01*
X8967778Y-9663984D01*
X8977301Y-9644937D01*
X8996349Y-9635413D01*
X9024920Y-9635413D01*
X9043968Y-9644937D01*
X9120159Y-9844937D02*
X9129682Y-9835413D01*
X9148730Y-9806841D01*
X9158254Y-9787794D01*
X9167778Y-9759222D01*
X9177301Y-9711603D01*
X9177301Y-9673508D01*
X9167778Y-9625889D01*
X9158254Y-9597318D01*
X9148730Y-9578270D01*
X9129682Y-9549699D01*
X9120159Y-9540175D01*
M02*
