G04 #@! TF.GenerationSoftware,KiCad,Pcbnew,(6.0.4)*
G04 #@! TF.CreationDate,2022-04-03T16:10:21-07:00*
G04 #@! TF.ProjectId,tokiponaboard,746f6b69-706f-46e6-9162-6f6172642e6b,rev?*
G04 #@! TF.SameCoordinates,Original*
G04 #@! TF.FileFunction,Legend,Top*
G04 #@! TF.FilePolarity,Positive*
%FSLAX46Y46*%
G04 Gerber Fmt 4.6, Leading zero omitted, Abs format (unit mm)*
G04 Created by KiCad (PCBNEW (6.0.4)) date 2022-04-03 16:10:21*
%MOMM*%
%LPD*%
G01*
G04 APERTURE LIST*
G04 Aperture macros list*
%AMRoundRect*
0 Rectangle with rounded corners*
0 $1 Rounding radius*
0 $2 $3 $4 $5 $6 $7 $8 $9 X,Y pos of 4 corners*
0 Add a 4 corners polygon primitive as box body*
4,1,4,$2,$3,$4,$5,$6,$7,$8,$9,$2,$3,0*
0 Add four circle primitives for the rounded corners*
1,1,$1+$1,$2,$3*
1,1,$1+$1,$4,$5*
1,1,$1+$1,$6,$7*
1,1,$1+$1,$8,$9*
0 Add four rect primitives between the rounded corners*
20,1,$1+$1,$2,$3,$4,$5,0*
20,1,$1+$1,$4,$5,$6,$7,0*
20,1,$1+$1,$6,$7,$8,$9,0*
20,1,$1+$1,$8,$9,$2,$3,0*%
G04 Aperture macros list end*
%ADD10C,0.150000*%
%ADD11C,0.127000*%
%ADD12C,0.120000*%
%ADD13C,0.203200*%
%ADD14C,2.082800*%
%ADD15R,1.600000X1.600000*%
%ADD16O,1.600000X1.600000*%
%ADD17C,2.202180*%
%ADD18RoundRect,0.101600X-0.749300X2.249170X-0.749300X-2.249170X0.749300X-2.249170X0.749300X2.249170X0*%
G04 APERTURE END LIST*
D10*
X28448095Y-27725714D02*
X28448095Y-28392380D01*
X28019523Y-27725714D02*
X28019523Y-28249523D01*
X28067142Y-28344761D01*
X28162380Y-28392380D01*
X28305238Y-28392380D01*
X28400476Y-28344761D01*
X28448095Y-28297142D01*
X28829047Y-27725714D02*
X29019523Y-28392380D01*
X29210000Y-27916190D01*
X29400476Y-28392380D01*
X29590952Y-27725714D01*
X30400476Y-27725714D02*
X30400476Y-28392380D01*
X29971904Y-27725714D02*
X29971904Y-28249523D01*
X30019523Y-28344761D01*
X30114761Y-28392380D01*
X30257619Y-28392380D01*
X30352857Y-28344761D01*
X30400476Y-28297142D01*
D11*
X111513257Y-26626457D02*
X111600342Y-26655485D01*
X111629371Y-26684514D01*
X111658400Y-26742571D01*
X111658400Y-26829657D01*
X111629371Y-26887714D01*
X111600342Y-26916742D01*
X111542285Y-26945771D01*
X111310057Y-26945771D01*
X111310057Y-26336171D01*
X111513257Y-26336171D01*
X111571314Y-26365200D01*
X111600342Y-26394228D01*
X111629371Y-26452285D01*
X111629371Y-26510342D01*
X111600342Y-26568400D01*
X111571314Y-26597428D01*
X111513257Y-26626457D01*
X111310057Y-26626457D01*
X112238971Y-26945771D02*
X111890628Y-26945771D01*
X112064800Y-26945771D02*
X112064800Y-26336171D01*
X112006742Y-26423257D01*
X111948685Y-26481314D01*
X111890628Y-26510342D01*
D10*
X69092380Y-74416900D02*
X69901904Y-74416900D01*
X69997142Y-74369281D01*
X70044761Y-74321662D01*
X70092380Y-74226424D01*
X70092380Y-74035948D01*
X70044761Y-73940710D01*
X69997142Y-73893091D01*
X69901904Y-73845472D01*
X69092380Y-73845472D01*
X69187619Y-73416900D02*
X69140000Y-73369281D01*
X69092380Y-73274043D01*
X69092380Y-73035948D01*
X69140000Y-72940710D01*
X69187619Y-72893091D01*
X69282857Y-72845472D01*
X69378095Y-72845472D01*
X69520952Y-72893091D01*
X70092380Y-73464519D01*
X70092380Y-72845472D01*
D11*
X78536800Y-54276171D02*
X78536800Y-54711600D01*
X78507771Y-54798685D01*
X78449714Y-54856742D01*
X78362628Y-54885771D01*
X78304571Y-54885771D01*
X79088342Y-54276171D02*
X78972228Y-54276171D01*
X78914171Y-54305200D01*
X78885142Y-54334228D01*
X78827085Y-54421314D01*
X78798057Y-54537428D01*
X78798057Y-54769657D01*
X78827085Y-54827714D01*
X78856114Y-54856742D01*
X78914171Y-54885771D01*
X79030285Y-54885771D01*
X79088342Y-54856742D01*
X79117371Y-54827714D01*
X79146400Y-54769657D01*
X79146400Y-54624514D01*
X79117371Y-54566457D01*
X79088342Y-54537428D01*
X79030285Y-54508400D01*
X78914171Y-54508400D01*
X78856114Y-54537428D01*
X78827085Y-54566457D01*
X78798057Y-54624514D01*
X103936800Y-82216171D02*
X103936800Y-82651600D01*
X103907771Y-82738685D01*
X103849714Y-82796742D01*
X103762628Y-82825771D01*
X103704571Y-82825771D01*
X104198057Y-82274228D02*
X104227085Y-82245200D01*
X104285142Y-82216171D01*
X104430285Y-82216171D01*
X104488342Y-82245200D01*
X104517371Y-82274228D01*
X104546400Y-82332285D01*
X104546400Y-82390342D01*
X104517371Y-82477428D01*
X104169028Y-82825771D01*
X104546400Y-82825771D01*
X27736800Y-54276171D02*
X27736800Y-54711600D01*
X27707771Y-54798685D01*
X27649714Y-54856742D01*
X27562628Y-54885771D01*
X27504571Y-54885771D01*
X27969028Y-54276171D02*
X28346400Y-54276171D01*
X28143200Y-54508400D01*
X28230285Y-54508400D01*
X28288342Y-54537428D01*
X28317371Y-54566457D01*
X28346400Y-54624514D01*
X28346400Y-54769657D01*
X28317371Y-54827714D01*
X28288342Y-54856742D01*
X28230285Y-54885771D01*
X28056114Y-54885771D01*
X27998057Y-54856742D01*
X27969028Y-54827714D01*
X53136800Y-46656171D02*
X53136800Y-47091600D01*
X53107771Y-47178685D01*
X53049714Y-47236742D01*
X52962628Y-47265771D01*
X52904571Y-47265771D01*
X53717371Y-46656171D02*
X53427085Y-46656171D01*
X53398057Y-46946457D01*
X53427085Y-46917428D01*
X53485142Y-46888400D01*
X53630285Y-46888400D01*
X53688342Y-46917428D01*
X53717371Y-46946457D01*
X53746400Y-47004514D01*
X53746400Y-47149657D01*
X53717371Y-47207714D01*
X53688342Y-47236742D01*
X53630285Y-47265771D01*
X53485142Y-47265771D01*
X53427085Y-47236742D01*
X53398057Y-47207714D01*
D12*
X68640000Y-80114996D02*
X68640000Y-74654996D01*
X27880000Y-80114996D02*
X68640000Y-80114996D01*
X68640000Y-67194996D02*
X27880000Y-67194996D01*
X68640000Y-72654996D02*
X68640000Y-67194996D01*
X27880000Y-67194996D02*
X27880000Y-80114996D01*
X68640000Y-72654996D02*
G75*
G03*
X68640000Y-74654996I0J-1000000D01*
G01*
D13*
X91859100Y-55095140D02*
X90256360Y-55095140D01*
X80860900Y-55095140D02*
X76984860Y-51219100D01*
X82463640Y-55095140D02*
X80860900Y-55095140D01*
X91859100Y-36344860D02*
X80860900Y-36344860D01*
X95735140Y-40220900D02*
X91859100Y-36344860D01*
X91859100Y-55095140D02*
X95735140Y-51219100D01*
X76984860Y-40220900D02*
X80860900Y-36344860D01*
X76984860Y-40220900D02*
X76984860Y-51219100D01*
X95735140Y-40220900D02*
X95735140Y-51219100D01*
X117259100Y-83035140D02*
X121135140Y-79159100D01*
X102384860Y-68160900D02*
X102384860Y-79159100D01*
X102384860Y-68160900D02*
X106260900Y-64284860D01*
X107863640Y-83035140D02*
X106260900Y-83035140D01*
X121135140Y-68160900D02*
X117259100Y-64284860D01*
X117259100Y-64284860D02*
X106260900Y-64284860D01*
X106260900Y-83035140D02*
X102384860Y-79159100D01*
X117259100Y-83035140D02*
X115656360Y-83035140D01*
X121135140Y-68160900D02*
X121135140Y-79159100D01*
X31663640Y-55095140D02*
X30060900Y-55095140D01*
X44935140Y-40220900D02*
X41059100Y-36344860D01*
X30060900Y-55095140D02*
X26184860Y-51219100D01*
X41059100Y-55095140D02*
X44935140Y-51219100D01*
X44935140Y-40220900D02*
X44935140Y-51219100D01*
X41059100Y-55095140D02*
X39456360Y-55095140D01*
X26184860Y-40220900D02*
X30060900Y-36344860D01*
X26184860Y-40220900D02*
X26184860Y-51219100D01*
X41059100Y-36344860D02*
X30060900Y-36344860D01*
X66459100Y-28724860D02*
X55460900Y-28724860D01*
X51584860Y-32600900D02*
X51584860Y-43599100D01*
X51584860Y-32600900D02*
X55460900Y-28724860D01*
X70335140Y-32600900D02*
X66459100Y-28724860D01*
X70335140Y-32600900D02*
X70335140Y-43599100D01*
X55460900Y-47475140D02*
X51584860Y-43599100D01*
X66459100Y-47475140D02*
X64856360Y-47475140D01*
X66459100Y-47475140D02*
X70335140Y-43599100D01*
X57063640Y-47475140D02*
X55460900Y-47475140D01*
%LPC*%
D14*
X104140000Y-29210000D03*
X104140000Y-31750000D03*
X104140000Y-34290000D03*
X104140000Y-36830000D03*
X104140000Y-39370000D03*
X104140000Y-41910000D03*
X104140000Y-44450000D03*
X104140000Y-46990000D03*
X104140000Y-49530000D03*
X104140000Y-52070000D03*
X104140000Y-54610000D03*
X104140000Y-57150000D03*
X119380000Y-57150000D03*
X119380000Y-54610000D03*
X119380000Y-52070000D03*
X119380000Y-49530000D03*
X119380000Y-46990000D03*
X119380000Y-44450000D03*
X119380000Y-41910000D03*
X119380000Y-39370000D03*
X119380000Y-36830000D03*
X119380000Y-34290000D03*
X119380000Y-31750000D03*
X119380000Y-29210000D03*
D15*
X67310000Y-66034996D03*
D16*
X64770000Y-66034996D03*
X62230000Y-66034996D03*
X59690000Y-66034996D03*
X57150000Y-66034996D03*
X54610000Y-66034996D03*
X52070000Y-66034996D03*
X49530000Y-66034996D03*
X46990000Y-66034996D03*
X44450000Y-66034996D03*
X41910000Y-66034996D03*
X39370000Y-66034996D03*
X36830000Y-66034996D03*
X34290000Y-66034996D03*
X31750000Y-66034996D03*
X29210000Y-66034996D03*
X29210000Y-81274996D03*
X31750000Y-81274996D03*
X34290000Y-81274996D03*
X36830000Y-81274996D03*
X39370000Y-81274996D03*
X41910000Y-81274996D03*
X44450000Y-81274996D03*
X46990000Y-81274996D03*
X49530000Y-81274996D03*
X52070000Y-81274996D03*
X54610000Y-81274996D03*
X57150000Y-81274996D03*
X59690000Y-81274996D03*
X62230000Y-81274996D03*
X64770000Y-81274996D03*
X67310000Y-81274996D03*
D17*
X95250000Y-54703980D03*
X93733620Y-35661600D03*
D18*
X89359740Y-53469540D03*
X85361780Y-53469540D03*
X83360260Y-53469540D03*
X87358220Y-53469540D03*
D17*
X119133620Y-63601600D03*
X120650000Y-82643980D03*
D18*
X114759740Y-81409540D03*
X110761780Y-81409540D03*
X108760260Y-81409540D03*
X112758220Y-81409540D03*
D17*
X44450000Y-54703980D03*
X42933620Y-35661600D03*
D18*
X38559740Y-53469540D03*
X34561780Y-53469540D03*
X32560260Y-53469540D03*
X36558220Y-53469540D03*
D17*
X68333620Y-28041600D03*
X69850000Y-47083980D03*
D18*
X63959740Y-45849540D03*
X59961780Y-45849540D03*
X57960260Y-45849540D03*
X61958220Y-45849540D03*
M02*
