M48
; DRILL file {KiCad (6.0.4)} date Sun 03 Apr 2022 04:10:34 PM PDT
; FORMAT={-:-/ absolute / metric / decimal}
; #@! TF.CreationDate,2022-04-03T16:10:34-07:00
; #@! TF.GenerationSoftware,Kicad,Pcbnew,(6.0.4)
; #@! TF.FileFunction,Plated,1,2,PTH
FMAT,2
METRIC
; #@! TA.AperFunction,Plated,PTH,ComponentDrill
T1C0.800
; #@! TA.AperFunction,Plated,PTH,ComponentDrill
T2C1.016
; #@! TA.AperFunction,Plated,PTH,ComponentDrill
T3C1.270
%
G90
G05
T1
X29.21Y-66.035
X29.21Y-81.275
X31.75Y-66.035
X31.75Y-81.275
X34.29Y-66.035
X34.29Y-81.275
X36.83Y-66.035
X36.83Y-81.275
X39.37Y-66.035
X39.37Y-81.275
X41.91Y-66.035
X41.91Y-81.275
X44.45Y-66.035
X44.45Y-81.275
X46.99Y-66.035
X46.99Y-81.275
X49.53Y-66.035
X49.53Y-81.275
X52.07Y-66.035
X52.07Y-81.275
X54.61Y-66.035
X54.61Y-81.275
X57.15Y-66.035
X57.15Y-81.275
X59.69Y-66.035
X59.69Y-81.275
X62.23Y-66.035
X62.23Y-81.275
X64.77Y-66.035
X64.77Y-81.275
X67.31Y-66.035
X67.31Y-81.275
T2
X104.14Y-29.21
X104.14Y-31.75
X104.14Y-34.29
X104.14Y-36.83
X104.14Y-39.37
X104.14Y-41.91
X104.14Y-44.45
X104.14Y-46.99
X104.14Y-49.53
X104.14Y-52.07
X104.14Y-54.61
X104.14Y-57.15
X119.38Y-29.21
X119.38Y-31.75
X119.38Y-34.29
X119.38Y-36.83
X119.38Y-39.37
X119.38Y-41.91
X119.38Y-44.45
X119.38Y-46.99
X119.38Y-49.53
X119.38Y-52.07
X119.38Y-54.61
X119.38Y-57.15
T3
X32.56Y-52.2G85X32.56Y-54.74
G05
X34.562Y-52.2G85X34.562Y-54.74
G05
X36.558Y-52.2G85X36.558Y-54.74
G05
X38.56Y-52.2G85X38.56Y-54.74
G05
X57.96Y-44.58G85X57.96Y-47.12
G05
X59.962Y-44.58G85X59.962Y-47.12
G05
X61.958Y-44.58G85X61.958Y-47.12
G05
X63.96Y-44.58G85X63.96Y-47.12
G05
X83.36Y-52.2G85X83.36Y-54.74
G05
X85.362Y-52.2G85X85.362Y-54.74
G05
X87.358Y-52.2G85X87.358Y-54.74
G05
X89.36Y-52.2G85X89.36Y-54.74
G05
X108.76Y-80.14G85X108.76Y-82.68
G05
X110.762Y-80.14G85X110.762Y-82.68
G05
X112.758Y-80.14G85X112.758Y-82.68
G05
X114.76Y-80.14G85X114.76Y-82.68
G05
T0
M30
